<svg xmlns="http://www.w3.org/2000/svg" width="31.043" height="31.04" viewBox="0 0 31.043 31.04"><defs><style>.a{fill:#6f23bb;}</style></defs><g transform="translate(0 -0.023)"><g transform="translate(9.261 23.296)"><path class="a" d="M153.95,384.345a.632.632,0,0,0-.035-.114.615.615,0,0,0-.056-.1.589.589,0,0,0-.167-.167.6.6,0,0,0-.1-.056.568.568,0,0,0-.113-.035.6.6,0,0,0-.236,0,.585.585,0,0,0-.114.035.616.616,0,0,0-.1.056.607.607,0,0,0-.223.272.587.587,0,0,0-.035.114.582.582,0,0,0,0,.236.569.569,0,0,0,.035.113.561.561,0,0,0,.056.1.589.589,0,0,0,.167.167.612.612,0,0,0,.1.056.587.587,0,0,0,.114.035.581.581,0,0,0,.236,0,.57.57,0,0,0,.113-.035.6.6,0,0,0,.1-.056.589.589,0,0,0,.167-.167.6.6,0,0,0,.056-.1.613.613,0,0,0,.035-.113.582.582,0,0,0,0-.236Z" transform="translate(-152.75 -383.857)"/></g><g transform="translate(0 18.813)"><path class="a" d="M27.89,315.079l-.007-.018a2.522,2.522,0,0,0-3.416-1.259l-4.224,1.168a2.769,2.769,0,0,0-1.715-1.689l-.016-.006L13.869,311.7a4.789,4.789,0,0,0-3.864-1.778,4.849,4.849,0,0,0-3.787,2.271H.606A.606.606,0,0,0,0,312.8v7.644a.606.606,0,0,0,.606.606h3.6a.606.606,0,0,0,.606-.606v-.523H6.508a.606.606,0,0,0,.606-.606v-.174a4.3,4.3,0,0,1,2.215.795,36.694,36.694,0,0,0,3.643,1.86l.027.011a5.443,5.443,0,0,0,1.951.368,4.833,4.833,0,0,0,2.009-.43l9.337-3.343.049-.02A2.588,2.588,0,0,0,27.89,315.079ZM3.6,319.837H1.213v-6.432H3.6Zm2.3-1.13H4.818v-5.3H5.9Zm19.957-1.44-9.332,3.341-.027.011-.024.011a3.93,3.93,0,0,1-3.019.051,35.121,35.121,0,0,1-3.52-1.8,5.457,5.457,0,0,0-2.821-.959v-4.883a3.744,3.744,0,0,1,2.891-1.906,3.5,3.5,0,0,1,2.968,1.394.606.606,0,0,0,.322.257l4.819,1.635a1.36,1.36,0,0,1,.989,1.605,1.181,1.181,0,0,1-1.452.815l-5.432-1.721a.606.606,0,1,0-.366,1.156L17.295,318l.017.005a2.38,2.38,0,0,0,1.82-.211,2.378,2.378,0,0,0,1.137-1.436q.021-.074.037-.147l4.552-1.261c.657-.225,1.521-.306,1.9.58C27.161,316.568,26.128,317.139,25.859,317.268Z" transform="translate(0 -309.922)"/></g><g transform="translate(20.569 7.51)"><path class="a" d="M340.451,123.986a.59.59,0,0,0-.035-.114.574.574,0,0,0-.056-.1.589.589,0,0,0-.167-.167.616.616,0,0,0-.1-.056.594.594,0,0,0-.113-.035.6.6,0,0,0-.237,0,.569.569,0,0,0-.113.035.6.6,0,0,0-.1.056.589.589,0,0,0-.167.167.612.612,0,0,0-.056.1.588.588,0,0,0-.035.114.583.583,0,0,0,0,.236.57.57,0,0,0,.035.113.6.6,0,0,0,.056.1.589.589,0,0,0,.167.167.6.6,0,0,0,.1.056.613.613,0,0,0,.113.035.6.6,0,0,0,.118.012.609.609,0,0,0,.119-.012.642.642,0,0,0,.113-.035.615.615,0,0,0,.1-.056.589.589,0,0,0,.167-.167.559.559,0,0,0,.056-.1.57.57,0,0,0,.035-.113.613.613,0,0,0,0-.236Z" transform="translate(-339.25 -123.498)"/></g><g transform="translate(1.8 0.023)"><path class="a" d="M58.327,2.077h-3.6a.606.606,0,0,0-.606.606v.523H52.426a.606.606,0,0,0-.606.606v.174A4.3,4.3,0,0,1,49.6,3.192a36.689,36.689,0,0,0-3.643-1.86l-.027-.011a5.158,5.158,0,0,0-3.959.062l-2.44.874L37.48.2a.606.606,0,0,0-.857,0L29.871,6.953a.6.6,0,0,0,0,.858L41.408,19.347a.655.655,0,0,0,.858,0l6.164-6.164c.16.014.327.021.5.021a4.848,4.848,0,0,0,3.787-2.271h5.612a.606.606,0,0,0,.606-.606V2.683A.606.606,0,0,0,58.327,2.077Zm-21.276-.59,1.382,1.382a2.643,2.643,0,0,1-2.764,0ZM32.539,8.763,31.157,7.381,32.539,6a2.644,2.644,0,0,1,0,2.764Zm9.3,9.3-1.382-1.382a2.64,2.64,0,0,1,2.763,0Zm2.255-2.255a3.853,3.853,0,0,0-4.51,0L33.412,9.637a3.853,3.853,0,0,0,0-4.511L34.8,3.742a3.853,3.853,0,0,0,4.511,0l1.311,1.311a2.4,2.4,0,0,0-1.8,1.322,3.456,3.456,0,1,0,3.973,4.278l2.047.695a3.871,3.871,0,0,0,.642,3.073ZM40.406,9.845l.016.006,1.212.412A2.244,2.244,0,1,1,38.589,7.7,2.684,2.684,0,0,0,40.406,9.845Zm5.945,3.7a2.652,2.652,0,0,1-.387-1.261,4.714,4.714,0,0,0,1.069.579Zm5.469-3.462a3.744,3.744,0,0,1-2.891,1.906,4.413,4.413,0,0,1-.633-.045h0a3.473,3.473,0,0,1-2.246-1.229c-.012-.018-.065-.087-.073-.1a.6.6,0,0,0-.334-.278L40.82,8.705a1.361,1.361,0,0,1-.99-1.6h0v0a1.181,1.181,0,0,1,1.451-.813l5.432,1.721a.606.606,0,0,0,.366-1.156L42.76,5.481l-.038-.038h0L40.485,3.206l1.922-.688.021-.008.006,0,.024-.011a3.929,3.929,0,0,1,3.019-.051A35.122,35.122,0,0,1,49,4.243a5.457,5.457,0,0,0,2.82.959Zm2.3-.365H53.032v-5.3h1.084Zm3.6,0H55.329V3.289h2.392Z" transform="translate(-29.691 -0.023)"/></g></g></svg>