<svg xmlns="http://www.w3.org/2000/svg" width="56.014" height="56" viewBox="0 0 56.014 56"><defs><style>.a{fill:#fff;}</style></defs><g transform="translate(0 -0.063)"><g transform="translate(0 0.063)"><path class="a" d="M50.121,336.164a5.05,5.05,0,0,0,.911-2.9v-1a5.08,5.08,0,0,0-10.16,0v1a5.05,5.05,0,0,0,.911,2.9,6.073,6.073,0,0,0-4.8,2.6,6.073,6.073,0,0,0-4.8-2.6,5.05,5.05,0,0,0,.911-2.9v-1a5.08,5.08,0,0,0-10.16,0v1a5.05,5.05,0,0,0,.911,2.9,6.073,6.073,0,0,0-4.806,2.61,6.073,6.073,0,0,0-4.806-2.61,5.05,5.05,0,0,0,.911-2.9v-1a5.08,5.08,0,0,0-10.16,0v1a5.05,5.05,0,0,0,.911,2.9A6.082,6.082,0,0,0,0,342.236v4.082a1.094,1.094,0,0,0,1.094,1.094H54.92a1.094,1.094,0,0,0,1.094-1.094v-4.082A6.082,6.082,0,0,0,50.121,336.164Zm-7.062-3.894a2.892,2.892,0,0,1,5.785,0v1a2.892,2.892,0,1,1-5.785,0Zm-17.937,0a2.892,2.892,0,0,1,5.785,0v1a2.892,2.892,0,1,1-5.785,0v-1Zm-17.951,0a2.892,2.892,0,0,1,5.785,0v1a2.892,2.892,0,1,1-5.785,0Zm10.767,12.953H2.187v-2.988a3.893,3.893,0,0,1,3.889-3.889h7.972a3.893,3.893,0,0,1,3.889,3.889v2.988Zm2.2-2.988a3.893,3.893,0,0,1,3.889-3.889H32a3.893,3.893,0,0,1,3.889,3.889v2.988H20.139v-2.988Zm33.687,2.988H38.076v-2.988a3.893,3.893,0,0,1,3.889-3.889h7.972a3.893,3.893,0,0,1,3.889,3.889v2.988Z" transform="translate(0 -291.411)"/><path class="a" d="M178.094,268.844a1.094,1.094,0,1,0,.773.32A1.1,1.1,0,0,0,178.094,268.844Z" transform="translate(-157.641 -239.446)"/><path class="a" d="M55.094,31.648h9.078a1.094,1.094,0,0,0,0-2.187H56.188V21.716a3.692,3.692,0,0,1,3.687-3.687h1.809v5.113a1.094,1.094,0,0,0,1.852.789l3.918-3.765v3.293a1.094,1.094,0,0,0,2.188,0V20.166l3.918,3.765a1.094,1.094,0,0,0,1.852-.789V18.028h1.809a3.692,3.692,0,0,1,3.687,3.687v7.745H72.922a1.094,1.094,0,0,0,0,2.188H82a1.094,1.094,0,0,0,1.094-1.094V21.716a5.882,5.882,0,0,0-5.875-5.875h-3.59a6.986,6.986,0,0,0,1.931-4.826V7.076a7.013,7.013,0,1,0-14.026,0v3.939a6.986,6.986,0,0,0,1.931,4.826h-3.59A5.882,5.882,0,0,0,54,21.716v8.839A1.094,1.094,0,0,0,55.094,31.648Zm8.777-13.62H66.52l-2.649,2.545V18.028Zm9.352,2.545-2.649-2.545h2.649Zm-9.5-13.5a4.826,4.826,0,0,1,9.625-.5L71.061,5.232a1.094,1.094,0,0,0-1.392.241,5.4,5.4,0,0,1-4.146,1.935h-1.8V7.076Zm0,3.939V9.595h1.8A7.576,7.576,0,0,0,70.7,7.557l2.672,1.57v1.888a4.826,4.826,0,0,1-9.651,0Z" transform="translate(-48.094 -0.063)"/><path class="a" d="M318.687,17.858a1.094,1.094,0,0,0,1.051.067l3.707-1.741h13.586a2.35,2.35,0,0,0,2.347-2.347V2.41A2.35,2.35,0,0,0,337.032.063h-16.5A2.35,2.35,0,0,0,318.18,2.41V16.935A1.094,1.094,0,0,0,318.687,17.858Zm1.68-15.448a.16.16,0,0,1,.16-.16h16.5a.16.16,0,0,1,.16.16V13.837a.16.16,0,0,1-.16.16H323.2a1.094,1.094,0,0,0-.465.1l-2.37,1.113Z" transform="translate(-283.379 -0.063)"/><path class="a" d="M358.528,44.826h10.425a1.094,1.094,0,0,0,0-2.187H358.528a1.094,1.094,0,0,0,0,2.188Z" transform="translate(-318.34 -37.982)"/><path class="a" d="M358.528,84.826h7.192a1.094,1.094,0,0,0,0-2.187h-7.192a1.094,1.094,0,0,0,0,2.188Z" transform="translate(-318.34 -73.607)"/></g></g></svg>