<svg xmlns="http://www.w3.org/2000/svg" width="21.699" height="22.141" viewBox="0 0 21.699 22.141"><defs><style>.a{fill:#6f23bb;}</style></defs><g transform="translate(-0.089 -0.001)"><path class="a" d="M.5,6.117a.9.9,0,0,0-.014.132V7.16A.9.9,0,0,0,1.068,8v1.34a.843.843,0,0,0,.8.839v7.743a.843.843,0,0,0-.8.839V20.1a.913.913,0,0,0-.586.851v.891a.3.3,0,0,0,.3.3h20.3a.3.3,0,0,0,.3-.3V20.95a.913.913,0,0,0-.586-.851V18.755a.843.843,0,0,0-.8-.839V10.182a.843.843,0,0,0,.8-.839V8a.9.9,0,0,0,.586-.843v-.9a.875.875,0,0,0-.014-.132.3.3,0,0,0,.243-.548L11.07.036a.3.3,0,0,0-.281,0L.249,5.569A.3.3,0,0,0,.5,6.117ZM1.67,8.525V8.061H5.141v.46ZM9.4,10.184v7.74a.843.843,0,0,0-.8.839v1.28H5.739v-1.28a.843.843,0,0,0-.8-.839V10.182a.843.843,0,0,0,.8-.839V8.061H8.592v1.28a.843.843,0,0,0,.8.841ZM9.2,8.525V8.061h3.471v.46Zm7.729,1.659v7.74a.843.843,0,0,0-.8.839v1.28H13.267v-1.28a.843.843,0,0,0-.8-.839V10.182a.843.843,0,0,0,.8-.839V8.061H16.12v1.28a.843.843,0,0,0,.8.841Zm-.2-1.659V8.061H20.2v.46ZM20.2,19.584v.459H16.722v-.459Zm-7.528,0v.459H9.194v-.459ZM9.7,9.586H9.435a.241.241,0,0,1-.241-.241V9.127h3.471v.219a.241.241,0,0,1-.241.241Zm2.169.6v7.733H10V10.188ZM9.7,18.522h2.729a.241.241,0,0,1,.241.241v.219H9.194v-.219a.241.241,0,0,1,.241-.241ZM5.137,19.584v.459H1.666v-.459ZM1.666,9.351V9.127H5.137v.219a.241.241,0,0,1-.241.241h-3a.241.241,0,0,1-.235-.243Zm2.669.843v7.727H2.468V10.188ZM1.666,18.769a.241.241,0,0,1,.241-.241H4.9a.241.241,0,0,1,.241.241v.219H1.666Zm19.113,2.193v.59H1.08v-.59a.311.311,0,0,1,.311-.311H20.468a.311.311,0,0,1,.311.3Zm-.586-2.193v.219H16.722v-.219a.241.241,0,0,1,.241-.241h3a.241.241,0,0,1,.235.235Zm-2.669-.843V10.188h1.868v7.733Zm2.669-8.575a.241.241,0,0,1-.241.241H16.964a.241.241,0,0,1-.241-.241V9.127h3.471ZM10.929.638l8.962,4.711H1.967ZM1.08,6.255a.3.3,0,0,1,.3-.3h19.1a.3.3,0,0,1,.3.3v.911a.3.3,0,0,1-.3.3H1.381a.3.3,0,0,1-.3-.3Zm0,0" transform="translate(0)"/></g></svg>