<svg xmlns="http://www.w3.org/2000/svg" width="109.127" height="109.127" viewBox="0 0 109.127 109.127"><defs><style>.a{opacity:0.1;}.b{fill:#fff;}</style></defs><g class="a" transform="matrix(0.891, 0.454, -0.454, 0.891, 36.835, 0)"><path class="b" d="M60.2,0A20.955,20.955,0,0,0,39.441,18.321H18.321V14.4a1.308,1.308,0,0,0-1.309-1.309H6.543A1.308,1.308,0,0,0,5.235,14.4v3.926H1.309A1.308,1.308,0,0,0,0,19.63v5.235a1.308,1.308,0,0,0,1.309,1.309H2.617V45.8H1.309A1.308,1.308,0,0,0,0,47.111v5.235a1.308,1.308,0,0,0,1.309,1.309H2.617v19.63H1.309A1.308,1.308,0,0,0,0,74.592v5.235a1.308,1.308,0,0,0,1.309,1.309H45.8a1.308,1.308,0,0,0,1.309-1.309V74.592A1.308,1.308,0,0,0,45.8,73.284H44.494V53.654H45.8a1.308,1.308,0,0,0,1.309-1.309V47.111A1.308,1.308,0,0,0,45.8,45.8H44.494V34.74A20.925,20.925,0,1,0,60.2,0ZM7.852,15.7H15.7v2.617H7.852ZM2.617,20.938H39.259a20.81,20.81,0,0,0,.182,2.617H2.617Zm41.876,57.58H2.617V75.9H44.494Zm-2.617-5.235H5.235V53.654H41.876Zm2.617-22.247H2.617V48.42H44.494ZM41.876,45.8H5.235V26.173H39.949a20.846,20.846,0,0,0,1.928,4.88ZM60.2,39.259A18.321,18.321,0,1,1,78.518,20.938,18.341,18.341,0,0,1,60.2,39.259Zm0,0"/><path class="b" d="M322.874,36.053l-.419-2.929a1.309,1.309,0,0,0-2.592,0l-.419,2.929a20.873,20.873,0,0,1-4.63,10.414A12.185,12.185,0,0,0,312,54.247a9.16,9.16,0,1,0,18.321,0,12.185,12.185,0,0,0-2.816-7.78A20.872,20.872,0,0,1,322.874,36.053ZM321.16,60.79a6.551,6.551,0,0,1-6.543-6.543,9.559,9.559,0,0,1,2.21-6.1,23.534,23.534,0,0,0,4.333-7.9,23.49,23.49,0,0,0,4.333,7.9,9.559,9.559,0,0,1,2.21,6.1A6.551,6.551,0,0,1,321.16,60.79Zm0,0" transform="translate(-260.963 -26.765)"/><path class="b" d="M368,169.309v2.617A3.931,3.931,0,0,0,371.926,168h-2.617A1.31,1.31,0,0,1,368,169.309Zm0,0" transform="translate(-307.803 -140.519)"/></g></svg>