<svg xmlns="http://www.w3.org/2000/svg" width="19" height="20.357" viewBox="0 0 19 20.357"><defs><style>.a{fill:#6f23bb;}</style></defs><path class="a" d="M20.661,1.357H18.286V.339A.339.339,0,0,0,17.946,0H15.571a.339.339,0,0,0-.339.339V1.357H7.768V.339A.339.339,0,0,0,7.429,0H5.054a.339.339,0,0,0-.339.339V1.357H2.339A.339.339,0,0,0,2,1.7V20.018a.339.339,0,0,0,.339.339H20.661A.339.339,0,0,0,21,20.018V1.7A.339.339,0,0,0,20.661,1.357ZM15.911.679h1.7V2.714h-1.7V.679ZM5.393.679h1.7V2.714h-1.7V.679ZM2.679,2.036H4.714V3.054a.339.339,0,0,0,.339.339H7.429a.339.339,0,0,0,.339-.339V2.036h7.464V3.054a.339.339,0,0,0,.339.339h2.375a.339.339,0,0,0,.339-.339V2.036h2.036V5.089H2.679Zm0,17.643V5.768H20.321V19.679Z" transform="translate(-2)"/><path class="a" d="M20.161,23H11v9.839H23.893V23H20.161Zm-2.375.679h2.375v2.375H17.786Zm2.375,5.429H17.786V26.732h2.375Zm-5.429-2.375h2.375v2.375H14.732Zm0-3.054h2.375v2.375H14.732Zm-3.054,0h2.375v2.375H11.679Zm0,3.054h2.375v2.375H11.679Zm2.375,5.429H11.679V29.786h2.375Zm3.054,0H14.732V29.786h2.375Zm3.054,0H17.786V29.786h2.375Zm3.054,0H20.839V29.786h2.375Zm0-3.054H20.839V26.732h2.375Zm0-5.429v2.375H20.839V23.679Z" transform="translate(-7.946 -15.196)"/></svg>