<svg xmlns="http://www.w3.org/2000/svg" width="30.476" height="25" viewBox="0 0 30.476 25"><defs><style>.a{fill:#6f23bb;}</style></defs><g transform="translate(0 -46)"><g transform="translate(23.333 53.143)"><g transform="translate(0 0)"><path class="a" d="M392.6,166a.6.6,0,1,0,.6.6A.6.6,0,0,0,392.6,166Z" transform="translate(-392 -166)"/></g></g><g transform="translate(0 46)"><g transform="translate(0 0)"><path class="a" d="M28.69,50.762H22.154l-1.887-3.775a1.776,1.776,0,0,0-1.6-.987H11.807a1.776,1.776,0,0,0-1.6.987L8.323,50.762H7.143v-.6a1.788,1.788,0,0,0-1.786-1.786H4.167a1.788,1.788,0,0,0-1.786,1.786v.6h-.6A1.788,1.788,0,0,0,0,52.548V69.214A1.788,1.788,0,0,0,1.786,71h26.9a1.788,1.788,0,0,0,1.786-1.786V52.548A1.788,1.788,0,0,0,28.69,50.762ZM11.275,47.52a.592.592,0,0,1,.532-.329h6.862a.592.592,0,0,1,.533.329l1.621,3.242H9.654Zm-7.7,2.647a.6.6,0,0,1,.6-.6h1.19a.6.6,0,0,1,.6.6v.6H3.571ZM1.19,56.708H8.717a7.75,7.75,0,0,0,0,8.339H1.19Zm14.048-2.375A6.548,6.548,0,1,1,8.69,60.881,6.551,6.551,0,0,1,15.238,54.333ZM29.286,69.214a.6.6,0,0,1-.6.6H1.786a.6.6,0,0,1-.6-.6V66.238H9.656a7.733,7.733,0,0,0,11.164,0h8.466Zm0-4.167H21.759a7.74,7.74,0,0,0,0-8.333h7.527Zm0-9.524H20.82a7.733,7.733,0,0,0-11.164,0H1.19V52.548a.6.6,0,0,1,.6-.6h26.9a.6.6,0,0,1,.6.6Z" transform="translate(0 -46)"/></g></g><g transform="translate(12.857 48.381)"><g transform="translate(0 0)"><path class="a" d="M220.167,86H216.6a.6.6,0,0,0,0,1.19h3.571a.6.6,0,1,0,0-1.19Z" transform="translate(-216 -86)"/></g></g><g transform="translate(9.881 55.524)"><g transform="translate(0 0)"><path class="a" d="M171.357,206a5.357,5.357,0,1,0,5.357,5.357A5.363,5.363,0,0,0,171.357,206Zm0,9.524a4.167,4.167,0,1,1,4.167-4.167A4.171,4.171,0,0,1,171.357,215.524Z" transform="translate(-166 -206)"/></g></g><g transform="translate(12.262 57.905)"><path class="a" d="M208.976,246A2.98,2.98,0,0,0,206,248.976a.6.6,0,1,0,1.19,0,1.788,1.788,0,0,1,1.786-1.786.6.6,0,0,0,0-1.19Z" transform="translate(-206 -246)"/></g><g transform="translate(25.714 53.143)"><g transform="translate(0 0)"><path class="a" d="M433.786,166H432.6a.6.6,0,1,0,0,1.19h1.19a.6.6,0,1,0,0-1.19Z" transform="translate(-432 -166)"/></g></g></g></svg>