<svg xmlns="http://www.w3.org/2000/svg" width="21.646" height="21.646" viewBox="0 0 21.646 21.646"><defs><style>.a{fill:#6f23bb;}</style></defs><path class="a" d="M10.823,0A10.823,10.823,0,1,0,21.646,10.823,10.835,10.835,0,0,0,10.823,0Zm0,20.925a10.1,10.1,0,1,1,10.1-10.1A10.113,10.113,0,0,1,10.823,20.925Z"/><path class="a" d="M22.69,18.9V15.24a.361.361,0,1,0-.722,0V18.9a1.441,1.441,0,0,0-1.031,1.031H18.361a.361.361,0,1,0,0,.722h2.577A1.44,1.44,0,1,0,22.69,18.9Zm-.361,2.113a.722.722,0,1,1,.722-.722A.722.722,0,0,1,22.329,21.012Z" transform="translate(-11.506 -9.511)"/><path class="a" d="M29.361,7.961a.361.361,0,0,0,.361-.361V7.24a.361.361,0,1,0-.722,0V7.6A.361.361,0,0,0,29.361,7.961Z" transform="translate(-18.538 -4.397)"/><path class="a" d="M29.361,49.879A.361.361,0,0,0,29,50.24V50.6a.361.361,0,1,0,.722,0V50.24A.361.361,0,0,0,29.361,49.879Z" transform="translate(-18.538 -31.884)"/><path class="a" d="M50.722,28.879h-.361a.361.361,0,1,0,0,.722h.361a.361.361,0,0,0,0-.722Z" transform="translate(-31.961 -18.46)"/><path class="a" d="M7.722,28.879H7.361a.361.361,0,1,0,0,.722h.361a.361.361,0,0,0,0-.722Z" transform="translate(-4.475 -18.46)"/><path class="a" d="M44.21,13.428l-.255.255a.361.361,0,1,0,.51.51l.255-.255a.361.361,0,0,0-.51-.51Z" transform="translate(-28.029 -8.516)"/><path class="a" d="M13.8,43.834l-.255.255a.361.361,0,1,0,.51.51l.255-.255a.361.361,0,0,0-.51-.51Z" transform="translate(-8.594 -27.952)"/><path class="a" d="M44.465,43.834a.361.361,0,0,0-.51.51l.255.255a.361.361,0,0,0,.51-.51Z" transform="translate(-28.029 -27.952)"/><path class="a" d="M14.06,13.428a.361.361,0,0,0-.51.51l.255.255a.361.361,0,0,0,.51-.51Z" transform="translate(-8.594 -8.516)"/></svg>