<?xml version="1.0" encoding="iso-8859-1"?>
<!-- Generator: Adobe Illustrator 16.0.0, SVG Export Plug-In . SVG Version: 6.00 Build 0)  -->
<!DOCTYPE svg PUBLIC "-//W3C//DTD SVG 1.1//EN" "http://www.w3.org/Graphics/SVG/1.1/DTD/svg11.dtd">
<svg version="1.1" id="Capa_1" xmlns="http://www.w3.org/2000/svg" xmlns:xlink="http://www.w3.org/1999/xlink" x="0px" y="0px"
	 width="70.074px" height="70.074px" viewBox="0 0 70.074 70.074" style="enable-background:new 0 0 70.074 70.074;"
	 xml:space="preserve">
<g>
	<path d="M64.7,48.26l5.374,5.372L64.7,59.011c-0.237,0.232-0.543,0.351-0.844,0.351c-0.306,0-0.611-0.12-0.845-0.351
		c-0.465-0.471-0.465-1.223,0-1.693l2.268-2.265H49.581c-4.215,0-9.115-3.091-10.939-6.891l-11.99-25.079
		c-1.451-3.024-5.505-5.58-8.86-5.58H1.154C0.517,17.504,0,16.987,0,16.35c0-0.637,0.517-1.154,1.154-1.154h16.638
		c4.211,0,9.119,3.093,10.936,6.893l11.994,25.076c1.45,3.024,5.506,5.586,8.859,5.586h16.236l-2.806-2.806
		c-0.465-0.47-0.465-1.223,0-1.688C63.478,47.787,64.234,47.787,64.7,48.26z M40.722,23.088c1.45-3.024,5.506-5.584,8.859-5.584
		h16.055l-2.624,2.624c-0.465,0.464-0.465,1.216,0,1.688c0.237,0.234,0.539,0.35,0.845,0.35c0.301,0,0.611-0.119,0.844-0.35
		l5.374-5.375l-5.374-5.38c-0.466-0.464-1.223-0.464-1.692,0c-0.466,0.465-0.466,1.222,0,1.694l2.449,2.445H49.576
		c-4.215,0-9.114,3.093-10.939,6.894l-3.677,7.691l1.279,2.67L40.722,23.088z M26.652,47.172c-1.451,3.024-5.505,5.582-8.86,5.582
		H1.154C0.517,52.754,0,53.269,0,53.907c0,0.637,0.517,1.152,1.154,1.152h16.638c4.211,0,9.119-3.091,10.936-6.891l3.682-7.697
		l-1.277-2.671L26.652,47.172z"/>
</g>
<g>
</g>
<g>
</g>
<g>
</g>
<g>
</g>
<g>
</g>
<g>
</g>
<g>
</g>
<g>
</g>
<g>
</g>
<g>
</g>
<g>
</g>
<g>
</g>
<g>
</g>
<g>
</g>
<g>
</g>
</svg>
