<svg xmlns="http://www.w3.org/2000/svg" width="29.5" height="29.5" viewBox="0 0 29.5 29.5"><defs><style>.a{fill:#6f23bb;stroke:#6f23bb;stroke-width:0.5px;}</style></defs><g transform="translate(0.25 0.25)"><path class="a" d="M47.7,23.769a12.946,12.946,0,0,0-5.854-14,.5.5,0,1,0-.524.852,11.951,11.951,0,0,1,5.432,12.8,3.5,3.5,0,1,0,.946.346Zm-1.66,5.58a2.5,2.5,0,1,1,2.5-2.5A2.5,2.5,0,0,1,46.043,29.349Z" transform="translate(-20.543 -4.849)"/><path class="a" d="M19.085,45.591A11.994,11.994,0,0,1,5.991,42.954a3.5,3.5,0,1,0-.8.608,12.987,12.987,0,0,0,14.277,2.952.5.5,0,1,0-.382-.924ZM1,40.5A2.5,2.5,0,1,1,3.5,43,2.5,2.5,0,0,1,1,40.5Z" transform="translate(0 -18.5)"/><path class="a" d="M3.535,15.606l.036,0a.5.5,0,0,0,.5-.465,11.939,11.939,0,0,1,8.61-10.657,3.495,3.495,0,1,0-.143-1A12.936,12.936,0,0,0,3.072,15.073.5.5,0,0,0,3.535,15.606ZM16.035,1a2.5,2.5,0,1,1-2.5,2.5A2.5,2.5,0,0,1,16.035,1Z" transform="translate(-1.535)"/></g></svg>