<svg xmlns="http://www.w3.org/2000/svg" width="19" height="19" viewBox="0 0 19 19"><defs><style>.a{fill:#fff;}</style></defs><g transform="translate(0 0)"><path class="a" d="M7.323,6.334H1.385A1.387,1.387,0,0,1,0,4.948V1.385A1.387,1.387,0,0,1,1.385,0H7.323A1.387,1.387,0,0,1,8.708,1.385V4.948A1.387,1.387,0,0,1,7.323,6.334ZM1.385,1.188a.2.2,0,0,0-.2.2V4.948a.2.2,0,0,0,.2.2H7.323a.2.2,0,0,0,.2-.2V1.385a.2.2,0,0,0-.2-.2Zm0,0"/><path class="a" d="M7.323,224.416H1.385A1.387,1.387,0,0,1,0,223.03v-8.313a1.387,1.387,0,0,1,1.385-1.386H7.323a1.387,1.387,0,0,1,1.386,1.386v8.313A1.387,1.387,0,0,1,7.323,224.416Zm-5.938-9.9a.2.2,0,0,0-.2.2v8.313a.2.2,0,0,0,.2.2H7.323a.2.2,0,0,0,.2-.2v-8.313a.2.2,0,0,0-.2-.2Zm0,0" transform="translate(0 -205.415)"/><path class="a" d="M284.655,347.666h-5.938a1.387,1.387,0,0,1-1.386-1.385v-3.563a1.387,1.387,0,0,1,1.386-1.385h5.938a1.387,1.387,0,0,1,1.385,1.385v3.563A1.387,1.387,0,0,1,284.655,347.666Zm-5.938-5.146a.2.2,0,0,0-.2.2v3.563a.2.2,0,0,0,.2.2h5.938a.2.2,0,0,0,.2-.2v-3.563a.2.2,0,0,0-.2-.2Zm0,0" transform="translate(-267.04 -328.665)"/><path class="a" d="M284.655,11.084h-5.938A1.387,1.387,0,0,1,277.332,9.7V1.385A1.387,1.387,0,0,1,278.718,0h5.938a1.387,1.387,0,0,1,1.385,1.385V9.7A1.387,1.387,0,0,1,284.655,11.084Zm-5.938-9.9a.2.2,0,0,0-.2.2V9.7a.2.2,0,0,0,.2.2h5.938a.2.2,0,0,0,.2-.2V1.385a.2.2,0,0,0-.2-.2Zm0,0" transform="translate(-267.04)"/></g></svg>