<svg xmlns="http://www.w3.org/2000/svg" width="29.003" height="35.571" viewBox="0 0 29.003 35.571"><defs><style>.a{fill:#28bb23;stroke:#28bb23;}</style></defs><g transform="translate(0.397 0.504)"><path class="a" d="M9.55,28.311a.374.374,0,0,0-.654,0L.969,42.689a7.733,7.733,0,0,0,.416,7.394A8.616,8.616,0,0,0,9.22,54.266a8.6,8.6,0,0,0,7.834-4.182,7.729,7.729,0,0,0,.423-7.394ZM16.418,49.7A7.9,7.9,0,0,1,9.225,53.52a7.921,7.921,0,0,1-7.2-3.817,6.977,6.977,0,0,1-.407-6.656l7.6-13.779,7.6,13.779A6.955,6.955,0,0,1,16.418,49.7Zm0,0" transform="translate(0 -19.699)"/><path class="a" d="M34.745,85.117a.373.373,0,0,0-.373.373,4.953,4.953,0,0,1-4.944,4.944.373.373,0,1,0,0,.746,5.7,5.7,0,0,0,5.689-5.69A.372.372,0,0,0,34.745,85.117Zm0,0" transform="translate(-20.203 -59.628)"/><path class="a" d="M57.91.192a.371.371,0,0,0-.652,0L51.868,9.969a5.249,5.249,0,0,0,.295,5.146,6.52,6.52,0,0,0,10.856.011,5.318,5.318,0,0,0,.288-5.145Zm4.478,14.55a5.8,5.8,0,0,1-9.591-.008,4.622,4.622,0,0,1-.276-4.406l5.066-9.182,5.063,9.182a4.618,4.618,0,0,1-.276,4.406Zm0,0" transform="translate(-35.805 0)"/><path class="a" d="M74.976,38.762a.373.373,0,0,0-.373.373,3.245,3.245,0,0,1-3.242,3.243.373.373,0,1,0,0,.746,3.994,3.994,0,0,0,3.988-3.989A.373.373,0,0,0,74.976,38.762Zm0,0" transform="translate(-49.579 -27.155)"/></g></svg>