<svg
    xmlns="http://www.w3.org/2000/svg"
    viewBox="0 0 27 27"
    id="vector">
    <path
        id="path"
        d="M 7.556 16.354 L 7.556 22.466 C 7.556 23.817 7.785 24.053 9.1 24.053 Q 13.965 24.053 18.831 24.053 C 19.903 24.053 20.206 23.753 20.207 22.676 C 20.207 20.33 20.221 17.985 20.197 15.64 C 20.192 15.14 20.297 14.949 20.846 14.958 C 22.767 14.992 24.688 14.986 26.609 14.958 C 27.119 14.951 27.215 15.084 27.156 15.595 C 26.727 18.934 25.052 21.992 22.469 24.15 C 19.885 26.309 16.579 27.414 13.217 27.243 C 9.854 27.071 6.678 25.635 4.327 23.225 C 1.977 20.814 0.622 17.602 0.535 14.237 C 0.449 10.871 1.637 7.594 3.86 5.066 C 6.084 2.537 9.182 0.94 12.531 0.596 C 15.881 0.252 19.239 1.186 21.93 3.209 C 24.621 5.232 26.451 8.199 27.051 11.512 C 27.188 12.212 27.051 12.4 26.324 12.379 C 24.479 12.328 22.632 12.346 20.786 12.373 C 20.324 12.38 20.186 12.253 20.198 11.79 C 20.226 10.344 20.214 8.896 20.207 7.449 C 20.207 6.514 19.873 6.179 18.953 6.177 Q 13.9 6.17 8.853 6.177 C 7.88 6.177 7.572 6.496 7.562 7.492 C 7.555 8.315 7.562 9.139 7.562 9.962 C 7.562 10.125 7.625 10.421 7.43 10.413 C 6.525 10.38 6.275 11.305 5.606 11.606 C 5.377 11.706 5.152 11.881 5.512 12.143 C 5.812 12.364 5.537 12.598 5.465 12.798 C 4.738 14.555 4.239 16.397 3.981 18.281 C 3.907 18.851 3.941 19.43 4.081 19.988 C 4.149 20.311 4.335 20.597 4.602 20.791 C 4.869 20.985 5.199 21.072 5.527 21.037 C 6.227 20.99 6.517 20.57 6.675 19.906 C 6.863 19.115 6.71 18.306 6.926 17.512 C 7.01 17.07 7.231 16.665 7.556 16.354 Z"
        fill="#00000000"
        fill-opacity="0.98"
        stroke="#6f23bb"
        stroke-opacity="0.98"
        stroke-width="1"
        fill-rule="evenodd"/>
    <path
        id="path_1"
        d="M 13.83 7.733 C 14.975 7.733 16.121 7.727 17.266 7.733 C 18.174 7.738 18.449 8.023 18.453 8.95 C 18.453 9.95 18.453 10.942 18.453 11.938 C 18.479 12.122 18.448 12.31 18.363 12.476 C 18.278 12.642 18.143 12.777 17.978 12.863 C 17.813 12.949 17.626 12.982 17.441 12.957 Q 13.893 12.971 10.341 12.957 C 10.157 12.983 9.969 12.952 9.802 12.869 C 9.636 12.786 9.499 12.654 9.409 12.492 C 9.319 12.329 9.281 12.142 9.299 11.957 C 9.288 10.887 9.28 9.815 9.299 8.745 C 9.312 8.11 9.544 7.688 10.312 7.717 C 11.488 7.765 12.659 7.733 13.83 7.733 Z"
        fill="#00000000"
        fill-opacity="0.98"
        stroke="#6f23bb"
        stroke-opacity="0.98"
        stroke-width="1"
        fill-rule="evenodd"/>
    <path
        id="path_2"
        d="M 7.56 11.843 C 7.56 12.924 7.544 13.888 7.569 14.851 C 7.575 14.985 7.546 15.118 7.483 15.236 C 7.42 15.354 7.327 15.453 7.213 15.523 C 6.865 15.784 6.594 16.136 6.43 16.539 C 6.266 16.942 6.215 17.383 6.282 17.813 C 6.388 18.499 6.293 19.201 6.009 19.834 C 5.762 20.334 5.283 20.468 4.959 20.055 C 4.802 19.879 4.682 19.673 4.608 19.45 C 4.533 19.226 4.505 18.99 4.525 18.755 C 4.846 16.752 5.417 14.796 6.225 12.935 C 6.28 12.806 6.295 12.571 6.459 12.591 C 7.005 12.661 7.136 12.16 7.56 11.843 Z"
        fill="#00000000"
        fill-opacity="0.98"
        stroke="#6f23bb"
        stroke-opacity="0.98"
        stroke-width="1"
        fill-rule="evenodd"/>
</svg>
