<svg xmlns="http://www.w3.org/2000/svg" width="22" height="22" viewBox="0 0 22 22"><defs><style>.a{fill:#6f23bb;}</style></defs><g transform="translate(-8 -8)"><path class="a" d="M19,8A11,11,0,1,0,30,19,11.012,11.012,0,0,0,19,8Zm0,20.167A9.167,9.167,0,1,1,28.167,19,9.177,9.177,0,0,1,19,28.167Z"/><path class="a" d="M31.065,24.269a.916.916,0,0,0-1.3,0l-2.1,2.1-2.1-2.1a.917.917,0,0,0-1.3,1.3l2.1,2.1-2.1,2.1a.917.917,0,1,0,1.3,1.3l2.1-2.1,2.1,2.1a.917.917,0,1,0,1.3-1.3l-2.1-2.1,2.1-2.1A.916.916,0,0,0,31.065,24.269Z" transform="translate(-8.667 -8.667)"/></g></svg>