<svg xmlns="http://www.w3.org/2000/svg" width="69.081" height="69.103" viewBox="0 0 69.081 69.103"><defs><style>.a{fill:#fff;}</style></defs><g transform="translate(-0.501 0)"><path class="a" d="M287.771,151.957a1.349,1.349,0,1,0,1.349,1.35A1.35,1.35,0,0,0,287.771,151.957Zm0,0" transform="translate(-247.331 -131.448)"/><path class="a" d="M221.028,332.5a1.35,1.35,0,1,0-1.909,0A1.351,1.351,0,0,0,221.028,332.5Zm0,0" transform="translate(-188.77 -285.629)"/><path class="a" d="M16.043,252.367a1.349,1.349,0,0,0,1.9.011l6.542-6.445a4.078,4.078,0,0,0,.961-4.187l1.407-1.357a4.024,4.024,0,0,1,2.81-1.135H47.6a12.081,12.081,0,0,0,8.47-3.441c.094-.091-.712.858,12.237-14.619a5.4,5.4,0,0,0-8.213-7.005l-7.962,8.183a5.423,5.423,0,0,0-4.2-2.009H32.895a17.408,17.408,0,0,0-6.757-1.349c-6.5,0-12.17,3-15.215,8.627a4.03,4.03,0,0,0-3.609,1.118L.895,235.2a1.349,1.349,0,0,0,0,1.9Zm10.095-30.654a14.728,14.728,0,0,1,5.94,1.236,1.347,1.347,0,0,0,.541.113H47.941a2.7,2.7,0,1,1,0,5.4H36.932a1.349,1.349,0,1,0,0,2.7H47.941a5.389,5.389,0,0,0,5.35-6.1c7.7-7.917,8.788-9.03,8.835-9.085a2.7,2.7,0,1,1,4.121,3.487l-12.1,14.468a9.4,9.4,0,0,1-6.54,2.63H29.666a6.708,6.708,0,0,0-4.684,1.892l-1.147,1.107-10.571-10.57c2.471-4.635,7.106-7.271,12.872-7.271ZM9.223,230.667a1.346,1.346,0,0,1,1.671-.19c.206.125,11.747,11.695,11.818,11.79a1.355,1.355,0,0,1-.124,1.75l-5.577,5.494L3.753,236.153Zm0,0" transform="translate(0 -183.663)"/><path class="a" d="M130.513,28.6H162.9a4.052,4.052,0,0,0,4.048-4.048V4.048A4.052,4.052,0,0,0,162.9,0H130.513a4.052,4.052,0,0,0-4.048,4.048V24.557A4.052,4.052,0,0,0,130.513,28.6Zm33.732-17.811H129.164V8.1h35.081ZM162.9,25.906H130.513a1.351,1.351,0,0,1-1.349-1.35V13.493h35.081V24.557a1.351,1.351,0,0,1-1.349,1.35ZM130.513,2.7H162.9a1.351,1.351,0,0,1,1.349,1.349V5.4H129.164V4.048A1.351,1.351,0,0,1,130.513,2.7Zm0,0" transform="translate(-108.963)"/><path class="a" d="M333.157,151.957h-5.4a1.349,1.349,0,0,0,0,2.7h5.4a1.349,1.349,0,1,0,0-2.7Zm0,0" transform="translate(-281.922 -131.448)"/></g></svg>