<svg xmlns="http://www.w3.org/2000/svg" width="31.017" height="19.644" viewBox="0 0 31.017 19.644"><defs><style>.a{fill:#fff;}</style></defs><g transform="translate(-0.001 -0.007)"><path class="a" d="M13.973,4.66A1.548,1.548,0,0,0,12.5,5.754L4.7,2.411a3.618,3.618,0,0,0-3.943.724l-.3.291a1.443,1.443,0,0,0-.44,1.043A1.467,1.467,0,0,0,.753,5.736a1.476,1.476,0,0,0,1.773-.271L2.6,5.392a.517.517,0,0,1,.795.071L9.829,14.9a2.582,2.582,0,0,0,2.135,1.129H23.278a1.561,1.561,0,0,0,1.165-.523l6.208-6.891a1.551,1.551,0,0,0,.281-1.566L29.381,2.917a1.542,1.542,0,0,0-.913-.911,1.562,1.562,0,0,0-1.258.081L21.146,4.66h-2V3.109a1.551,1.551,0,0,0,0-3.1h-3.1a1.551,1.551,0,0,0,0,3.1V4.66Zm7.279,1.034a.516.516,0,0,0,.2-.041l6.182-2.621.048-.023a.514.514,0,0,1,.73.271l1.551,4.135a.517.517,0,0,1-.086.517l-6.206,6.888a.521.521,0,0,1-.394.178H11.964a1.551,1.551,0,0,1-1.281-.678L4.246,4.879a1.551,1.551,0,0,0-2.378-.217L1.8,4.734a.451.451,0,0,1-.527.1.432.432,0,0,1-.219-.368.417.417,0,0,1,.127-.3l.3-.29a2.591,2.591,0,0,1,2.818-.517L12.736,6.98l.2.042a.531.531,0,0,0,.2-.04q.084-.053.165-.11a.506.506,0,0,0,.093-.134c.006-.011.016-.018.02-.029a.5.5,0,0,0,.023-.111.574.574,0,0,0,.02-.092v-.3a.517.517,0,0,1,.517-.517ZM15.524,1.558a.517.517,0,0,1,.517-.517h3.1a.517.517,0,0,1,0,1.034h-3.1A.517.517,0,0,1,15.524,1.558Zm1.551,1.551h1.034V4.66H17.074Zm0,0" transform="translate(-0.014)"/><path class="a" d="M375.978,82.692a.77.77,0,0,0,.854-.2l4.464-4.937a.776.776,0,0,0,.151-.792l-.767-2.05a.775.775,0,0,0-1.011-.449l-3.7,1.475a.772.772,0,0,0-.491.721v5.512a.771.771,0,0,0,.5.724Zm.537-6.06,3.289-1.313.62,1.654L376.515,81.3Zm0,0" transform="translate(-352.735 -69.703)"/><path class="a" d="M3.62,180.233a3.539,3.539,0,0,0,3.618-3.619c0-1.686-2.048-4.418-2.837-5.329a1.065,1.065,0,0,0-1.562,0C2.05,172.2,0,174.929,0,176.615a3.539,3.539,0,0,0,3.619,3.619Zm0-8.271c1.042,1.2,2.584,3.515,2.584,4.652A2.5,2.5,0,0,1,3.62,179.2a2.5,2.5,0,0,1-2.585-2.584C1.035,175.478,2.578,173.166,3.62,171.962Zm0,0" transform="translate(0 -160.583)"/><path class="a" d="M239.983,110.941h-.517a.517.517,0,0,0,0,1.034h.517a.517.517,0,0,0,0-1.034Zm0,0" transform="translate(-224.474 -104.213)"/><path class="a" d="M281.613,111.459a.517.517,0,0,0,.517.517H284.2a.517.517,0,1,0,0-1.034H282.13A.517.517,0,0,0,281.613,111.459Zm0,0" transform="translate(-264.553 -104.214)"/><path class="a" d="M30.106,241.979a.518.518,0,1,0,.327-.982c-.393-.131-.454-.306-.474-.362a1.326,1.326,0,0,1,.225-.93.517.517,0,1,0-.861-.572,2.312,2.312,0,0,0-.342,1.835A1.642,1.642,0,0,0,30.106,241.979Zm0,0" transform="translate(-27.166 -224.422)"/></g></svg>