<svg xmlns="http://www.w3.org/2000/svg" width="19.851" height="19.801" viewBox="0 0 19.851 19.801"><defs><style>.a{fill:#fff;}</style></defs><path class="a" d="M285.769,274.19a.749.749,0,0,1-1.045.574l-3.164-1.4a.331.331,0,0,1-.18-.409l1.588-4.717a1.6,1.6,0,0,1,1.786-1.059l.5.089a1.581,1.581,0,0,1,1.29,1.8Zm-.778-.032a.084.084,0,0,0,.078,0,.087.087,0,0,0,.046-.066l.773-5.112a.936.936,0,0,0-.011-.331l-.559.442a1.728,1.728,0,0,0-.579.822l-1.212,3.6Zm.144-6.234-.5-.089a.918.918,0,0,0-.162-.014.935.935,0,0,0-.882.631l-1.492,4.432.816.36,1.193-3.544a2.381,2.381,0,0,1,.8-1.132l.606-.48a.926.926,0,0,0-.38-.166Zm0,0" transform="translate(-277.616 -256.805)"/><path class="a" d="M19.206,3.152,14.267,4.608a.513.513,0,0,0-.182.1L12.342,6.157l-.281.235L9.785,18.224A2.007,2.007,0,0,1,7,19.682l-3.174-1.4a1.1,1.1,0,0,1-1.263.31L.889,17.9a1.1,1.1,0,0,1-.6-1.439L3.335,9.021,3.109,8.76a1.171,1.171,0,0,1,.119-1.65L6.716,4.088a1.171,1.171,0,0,1,1.652.119l.564.653L10.2,3.8h0l2.349-1.91a1.163,1.163,0,0,1,.408-.215L18.309.1a1.17,1.17,0,0,1,1.452.792L20,1.7a1.17,1.17,0,0,1-.792,1.455ZM8.644,5.539l-.777-.9a.509.509,0,0,0-.718-.052L3.66,7.61a.509.509,0,0,0-.052.717l.359.415a.331.331,0,0,1,.056.342L.9,16.713a.441.441,0,0,0,.241.576l1.675.686a.441.441,0,0,0,.576-.242.331.331,0,0,1,.44-.178l3.437,1.519A1.348,1.348,0,0,0,9.135,18.1l2.3-11.948a.332.332,0,0,1,.113-.192l.1-.087L10.383,4.511,9.1,5.576a.331.331,0,0,1-.461-.038Zm10.72-3.654-.236-.8A.508.508,0,0,0,18.5.736L13.148,2.31a.508.508,0,0,0-.177.093L10.895,4.09l1.264,1.356,1.5-1.252a1.162,1.162,0,0,1,.418-.224l4.94-1.454a.509.509,0,0,0,.344-.631Zm0,0" transform="translate(-0.203 -0.053)"/><path class="a" d="M2.317,141.862A2.265,2.265,0,0,1,0,139.547c0-1.054,1.281-2.959,1.816-3.575a.682.682,0,0,1,1,0c.534.616,1.816,2.521,1.816,3.575a2.265,2.265,0,0,1-2.316,2.315Zm0-5.458a7.605,7.605,0,0,0-1.654,3.142A1.6,1.6,0,0,0,2.317,141.2a1.6,1.6,0,0,0,1.654-1.654A7.611,7.611,0,0,0,2.317,136.4Zm0,0" transform="translate(15.218 -130.494)"/><path class="a" d="M238.812,158.946a.331.331,0,0,1,.239.4l-.165.648a.331.331,0,0,1-.32.249.321.321,0,0,1-.082-.01.331.331,0,0,1-.239-.4l.165-.648a.331.331,0,0,1,.4-.239Zm0,0" transform="translate(-228.445 -152.777)"/><path class="a" d="M252.863,204.161l-.469,1.985a.331.331,0,0,1-.322.255.315.315,0,0,1-.076-.009.331.331,0,0,1-.246-.4l.469-1.985a.331.331,0,0,1,.644.152Zm0,0" transform="translate(-242.779 -195.859)"/></svg>