<svg xmlns="http://www.w3.org/2000/svg" width="90.26" height="89.441" viewBox="0 0 90.26 89.441"><defs><style>.a{opacity:0.1;}.b{fill:#fff;}</style></defs><g class="a" transform="matrix(0.788, -0.616, 0.616, 0.788, -8.113, 30.488)"><g transform="translate(9.188 19.466)"><path class="b" d="M79.318,48.894l-.1-.05a2.77,2.77,0,0,0-1.9-.786H53.744a2.791,2.791,0,0,0-2.784,2.784V70a2.782,2.782,0,0,0,2.784,2.777h5.539a.9.9,0,0,0,.909-.894v-.022a.9.9,0,0,0,0-.108v-.426a5.362,5.362,0,1,1,10.724,0v.462a.9.9,0,0,0,.822.974h5.618a2.783,2.783,0,0,0,2.777-2.777V50.863A2.777,2.777,0,0,0,79.318,48.894Zm-2,22.076h-4.63a7.169,7.169,0,0,0-14.316,0H53.744a.986.986,0,0,1-1.01-1.01v-19.1a.981.981,0,0,1,.974-.974H77.313a.925.925,0,0,1,.945.974L78.287,70A.974.974,0,0,1,77.313,70.97Z" transform="translate(-50.96 -48.057)"/></g><g transform="translate(0 13.177)"><path class="b" d="M65.651,19.148a2.51,2.51,0,0,0-1.773-.735H56.586a.9.9,0,0,0-.721.332l-4.032,4.327a.9.9,0,0,0-.238.671v4.133a.9.9,0,0,0,.49.8V57.322a1.32,1.32,0,0,1-.8,1.2,2.162,2.162,0,0,1-.721.108H48.574v-.4a1.945,1.945,0,0,0-1.94-1.94h-3V17.18A4,4,0,0,0,42.5,14.417l-.05-.058a4,4,0,0,0-2.842-1.183H7.876a4.024,4.024,0,0,0-4.017,4.017V68.941H2.935a2.935,2.935,0,0,0,0,5.871H44.542a2.928,2.928,0,0,0,2.128-4.948l-.058-.058a2.929,2.929,0,0,0-2.077-.865h-.9v-2.6h3.007a1.947,1.947,0,0,0,1.94-1.94v-.4h2a8.472,8.472,0,0,0,2.791-.5,6.776,6.776,0,0,0,4.14-6.188h0V28.654a.909.909,0,0,0,.361-.332l3.13-4.9h2.885a2.5,2.5,0,0,0,1.766-4.271ZM5.683,17.18A2.221,2.221,0,0,1,7.9,14.966H39.631a2.207,2.207,0,0,1,1.565.649l.043.036a2.207,2.207,0,0,1,.613,1.522V68.941H5.683ZM44.542,70.715v.036a1.125,1.125,0,0,1,.8.332h.036a1.133,1.133,0,0,1-.837,1.9H2.935a1.132,1.132,0,0,1,0-2.265Zm2.229-11.179V64.4a.137.137,0,0,1-.137.137h-3V58.1h3.007a.129.129,0,0,1,.094.036.137.137,0,0,1,.043.094Zm8.561-.346a4.875,4.875,0,0,1-4.522,3.022H48.574V60.431H50.8a3.109,3.109,0,0,0,3.108-3.108V28.748h1.781L55.7,57.322A4.884,4.884,0,0,1,55.331,59.19Zm9.08-37.806a.721.721,0,0,1-.5.2h-3.4a.9.9,0,0,0-.757.418l-3.144,4.948H53.42V24.017l3.556-3.83h6.938a.721.721,0,0,1,.5,1.2Z" transform="translate(0 -13.177)"/></g></g></svg>