<svg xmlns="http://www.w3.org/2000/svg" width="87.79" height="87.846" viewBox="0 0 87.79 87.846"><defs><style>.a{opacity:0.1;}.b{fill:#fff;}</style></defs><g class="a" transform="matrix(0.616, 0.788, -0.788, 0.616, 50.188, -0.793)"><g transform="translate(0 1.288)"><g transform="translate(0 0)"><path class="b" d="M250.315,97.992a7.035,7.035,0,1,0,7.035,7.035A7.044,7.044,0,0,0,250.315,97.992Zm0,12.061a5.025,5.025,0,1,1,5.025-5.025A5.031,5.031,0,0,1,250.315,110.053Z" transform="translate(-212.716 -85.843)"/><path class="b" d="M62.2,49.325l-1.941-3.88.8-.4L51.824,26.575l1.959-2.94-2.256-6.767L38.67,6.154l-3.2,2.133L30.038,6.114l-.879,1.979L19.8,3.416,2.782,1.288,0,8.243l17.2,2.15,8.946,4.473L25.4,16.55l2.044,3.066-2,5.991,4.607,8.063,1.773-.38,7.161,14.319H52.556l.225.449,1.9,3.808v3.783H24.533V42.583a5.031,5.031,0,0,0-5.025-5.025H.412v2.01h19.1a3.019,3.019,0,0,1,3.015,3.015V55.649a2.012,2.012,0,0,0,2.01,2.01H54.685a2.012,2.012,0,0,0,2.01-2.01V51.866a2.026,2.026,0,0,0-.212-.9l-1.454-2.91,3.428-1.715L60.4,50.222a3.052,3.052,0,0,1,.318,1.351v7.092A3.019,3.019,0,0,1,57.7,61.679H21.518A3.019,3.019,0,0,1,18.5,58.664V45.6a2.012,2.012,0,0,0-2.01-2.01H.412V45.6H16.493V58.664a5.031,5.031,0,0,0,5.025,5.025H57.7a5.031,5.031,0,0,0,5.025-5.025V51.573A5.073,5.073,0,0,0,62.2,49.325Zm-35.231-36.3L17.793,8.441,2.833,6.571l1.238-3.1,15.14,1.893L28.34,9.932ZM43.471,38.073,42.72,45.6H40.23L33.858,32.855l2.005-.43,3.768.628a4.623,4.623,0,0,1,3.84,5.02ZM44.74,45.6l.733-7.325a6.611,6.611,0,0,0-4.506-6.942l3.117-.668L51.551,45.6H44.74Zm9.39.662L45.185,28.372,31.072,31.4l-3.433-6.007,2.024-6.069-1.976-2.964,3.4-7.655,4.618,1.847,2.83-1.887L49.8,18.047l1.764,5.294L49.5,26.431l8.857,17.714Z" transform="translate(0 -1.288)"/><rect class="b" width="2.01" height="2.01" transform="translate(50.665 57.376)"/><rect class="b" width="2.01" height="2.01" transform="translate(46.644 57.376)"/><rect class="b" width="9.045" height="2.01" transform="translate(35.589 57.376)"/></g></g></g></svg>