<svg xmlns="http://www.w3.org/2000/svg" width="45.831" height="29.1" viewBox="0 0 45.831 29.1"><defs><style>.a{fill:#6f23bb;}</style></defs><g transform="translate(0 -92.25)"><g transform="translate(0 92.25)"><path class="a" d="M39.637,105.054a5.232,5.232,0,1,0-6,0,9.066,9.066,0,0,0-3.092,1.814,11.731,11.731,0,0,0-4.244-2.312,6.629,6.629,0,1,0-6.856,0,11.829,11.829,0,0,0-4.2,2.285,9.14,9.14,0,0,0-3.056-1.777,5.232,5.232,0,1,0-6,0A9.185,9.185,0,0,0,0,113.742v.6a.039.039,0,0,0,.036.036h11.09a12.2,12.2,0,0,0-.1,1.533v.617a4.822,4.822,0,0,0,4.824,4.824H29.907a4.822,4.822,0,0,0,4.824-4.824v-.617a12.2,12.2,0,0,0-.1-1.533H45.795a.039.039,0,0,0,.036-.036v-.6A9.22,9.22,0,0,0,39.637,105.054Zm-6.783-4.289a3.781,3.781,0,1,1,3.854,3.781h-.145A3.776,3.776,0,0,1,32.854,100.765Zm-15.18-1.886a5.178,5.178,0,1,1,5.477,5.169h-.6A5.185,5.185,0,0,1,17.674,98.879Zm-12.3,1.886a3.781,3.781,0,1,1,3.854,3.781H9.086A3.782,3.782,0,0,1,5.377,100.765Zm6,12.151H1.469A7.748,7.748,0,0,1,9.1,106h.109a7.668,7.668,0,0,1,4.942,1.841A11.907,11.907,0,0,0,11.381,112.917Zm21.882,3.609a3.379,3.379,0,0,1-3.373,3.373H15.833a3.379,3.379,0,0,1-3.373-3.373v-.617a10.417,10.417,0,0,1,10.093-10.4c.1.009.209.009.308.009s.209,0,.308-.009a10.417,10.417,0,0,1,10.093,10.4Zm1.079-3.609a11.875,11.875,0,0,0-2.748-5.042A7.7,7.7,0,0,1,36.581,106h.109a7.748,7.748,0,0,1,7.635,6.919Z" transform="translate(0 -92.25)"/></g></g></svg>