<svg xmlns="http://www.w3.org/2000/svg" width="17.173" height="21.076" viewBox="0 0 17.173 21.076"><defs><style>.a{fill:#fff;}</style></defs><path class="a" d="M19.832,7.85V5.659c0-3.12-2.8-5.659-6.245-5.659S7.342,2.539,7.342,5.659V7.85A2.824,2.824,0,0,0,5,10.628v7.627a2.825,2.825,0,0,0,2.822,2.821h11.53a2.825,2.825,0,0,0,2.822-2.822V10.628A2.824,2.824,0,0,0,19.832,7.85ZM8.122,5.659c0-2.69,2.451-4.879,5.464-4.879s5.464,2.188,5.464,4.879V7.806H8.122Zm13.27,12.6A2.043,2.043,0,0,1,19.352,20.3H7.822a2.043,2.043,0,0,1-2.041-2.041V10.628A2.043,2.043,0,0,1,7.822,8.587h11.53a2.043,2.043,0,0,1,2.041,2.041Z" transform="translate(-5)"/><path class="a" d="M24.561,28A1.563,1.563,0,0,0,23,29.561V31.9a1.561,1.561,0,0,0,3.122,0V29.561A1.563,1.563,0,0,0,24.561,28Zm.781,3.9a.781.781,0,0,1-1.561,0V29.561a.781.781,0,0,1,1.561,0Z" transform="translate(-15.975 -17.071)"/></svg>