<svg xmlns="http://www.w3.org/2000/svg" width="20.726" height="24.014" viewBox="0 0 20.726 24.014"><defs><style>.a{fill:none;stroke:#6f23bb;}</style></defs><g transform="translate(-3.5 0.5)"><path class="a" d="M12.751,24.983a.411.411,0,1,0,.581.581l4.931-4.931a.407.407,0,0,0,.089-.134.411.411,0,0,0,0-.314.42.42,0,0,0-.089-.134L13.332,15.12a.411.411,0,0,0-.581.581l4.23,4.23H4.411a.411.411,0,0,0,0,.822h12.57Z" transform="translate(0 -8.835)"/><path class="a" d="M28.616,0H13.411A.411.411,0,0,0,13,.411v8.63a.411.411,0,1,0,.822,0V.822H28.205v21.37H13.822V13.973a.411.411,0,1,0-.822,0V22.6a.411.411,0,0,0,.411.411H28.616a.411.411,0,0,0,.411-.411V.411A.411.411,0,0,0,28.616,0Z" transform="translate(-5.301)"/></g></svg>