<svg xmlns="http://www.w3.org/2000/svg" width="39.836" height="42.956" viewBox="0 0 39.836 42.956"><defs><style>.a{fill:#fff;}</style></defs><path class="a" d="M39.48,16.5l-3.7-.356a15.749,15.749,0,0,0-1.876-4.457l2.355-2.844A.7.7,0,0,0,36.22,7.9l-4-4a.7.7,0,0,0-.944-.044L28.433,6.212a16.2,16.2,0,0,0-4.455-1.877l-.356-3.7a.7.7,0,0,0-.7-.634H17.461a.7.7,0,0,0-.7.634l-.357,3.7a16.189,16.189,0,0,0-4.455,1.877L9.1,3.855a.7.7,0,0,0-.944.044l-4,4a.7.7,0,0,0-.044.944l2.355,2.843A15.743,15.743,0,0,0,4.6,16.142L.9,16.5a.7.7,0,0,0-.631.7v5.666a.7.7,0,0,0,.63.7l3.7.356a16.19,16.19,0,0,0,1.876,4.455L4.12,31.218a.7.7,0,0,0,.075.974l3.032,2.681a.7.7,0,0,0,1.041-.124L12.625,28.5a.7.7,0,0,0-.08-.9,10.7,10.7,0,1,1,15.139,0,.7.7,0,0,0-.073.907l4.51,6.252a.7.7,0,0,0,1.034.115l3.033-2.68a.7.7,0,0,0,.075-.974l-2.356-2.846a16.188,16.188,0,0,0,1.877-4.455l3.7-.356a.7.7,0,0,0,.63-.7V17.2a.7.7,0,0,0-.63-.7Zm-.774,5.728-3.56.343a.7.7,0,0,0-.616.547,14.8,14.8,0,0,1-2.076,4.928.7.7,0,0,0,.047.832l2.248,2.714-1.942,1.717-3.716-5.151a12.109,12.109,0,1,0-17.945.007L7.567,33.3,5.634,31.59l2.248-2.714a.7.7,0,0,0,.047-.833,14.818,14.818,0,0,1-2.078-4.928.7.7,0,0,0-.614-.547l-3.56-.343V17.834l3.56-.344a.7.7,0,0,0,.617-.55,14.371,14.371,0,0,1,2.074-4.921.7.7,0,0,0-.045-.836L5.609,8.438,8.7,5.344l2.746,2.274a.7.7,0,0,0,.832.047,14.81,14.81,0,0,1,4.928-2.077.7.7,0,0,0,.547-.618L18.1,1.4h4.187l.344,3.565a.7.7,0,0,0,.547.618A14.81,14.81,0,0,1,28.1,7.665a.7.7,0,0,0,.832-.047l2.745-2.274,3.093,3.093L32.5,11.183a.7.7,0,0,0-.045.835,14.374,14.374,0,0,1,2.075,4.921.7.7,0,0,0,.614.55l3.561.343Zm0,0" transform="translate(-0.274 0)"/><path class="a" d="M169.16,150.957V140.3a5.855,5.855,0,0,0,2.931-4.96,5.154,5.154,0,0,0-4.178-5.321.7.7,0,0,0-.857.739l.232,2.979a2.015,2.015,0,0,1-1.872,0l.249-3a.7.7,0,0,0-.895-.732,5.672,5.672,0,0,0-.515,10.565V151.19a5.807,5.807,0,0,0-2.906,4.941,5.233,5.233,0,0,0,4.127,5.358.7.7,0,0,0,.872-.735l-.231-2.979a2.016,2.016,0,0,1,1.872,0l-.25,3a.7.7,0,0,0,.895.732,5.652,5.652,0,0,0,.526-10.545Zm.075,8.762.187-2.245a.7.7,0,0,0-.274-.617l-.026-.02a3.42,3.42,0,0,0-4.172.027.7.7,0,0,0-.265.606l.179,2.309a3.841,3.841,0,0,1-2.107-3.655,4.4,4.4,0,0,1,2.5-3.874.7.7,0,0,0,.4-.636V140.075a.7.7,0,0,0-.495-.672,4.023,4.023,0,0,1-2.871-4.025,4.07,4.07,0,0,1,1.874-3.588l-.186,2.245a.7.7,0,0,0,.275.617l.026.02a3.419,3.419,0,0,0,4.168-.024l.019-.015a.7.7,0,0,0,.251-.594l-.182-2.334a3.761,3.761,0,0,1,2.149,3.633,4.491,4.491,0,0,1-2.53,3.9.7.7,0,0,0-.4.634v11.579a.7.7,0,0,0,.5.672,4.023,4.023,0,0,1,2.873,4.019,4.1,4.1,0,0,1-1.894,3.574Zm0,0" transform="translate(-146.794 -118.574)"/></svg>