<svg xmlns="http://www.w3.org/2000/svg" width="19.833" height="19.833" viewBox="0 0 19.833 19.833"><defs><style>.a{fill:#fff;}</style></defs><g transform="translate(0 0)"><path class="a" d="M1.531,5,.463,6.068l1.4,1.4L2.934,6.4l.041.017V7.933H4.958V6.418L5,6.4,6.069,7.47l1.4-1.4L6.4,5c.006-.013.011-.027.017-.041H7.933V2.975H6.418L6.4,2.934,7.47,1.864l-1.4-1.4L5,1.531l-.041-.017V0H2.975V1.514l-.041.017L1.864.462l-1.4,1.4,1.07,1.07c-.006.013-.011.027-.017.041H0V4.958H1.515L1.531,5ZM.661,3.636H1.993L2.065,3.4a1.98,1.98,0,0,1,.156-.378l.118-.217L1.4,1.864,1.864,1.4l.943.943.217-.119A2,2,0,0,1,3.4,2.065l.234-.071V.661H4.3V1.993l.234.071a2,2,0,0,1,.377.155l.217.119L6.069,1.4l.468.468-.943.943.118.217a1.98,1.98,0,0,1,.156.378l.071.234H7.272V4.3H5.94l-.071.234a1.98,1.98,0,0,1-.156.378l-.118.217.943.943-.468.468-.943-.943-.217.119a2,2,0,0,1-.377.155L4.3,5.939V7.272H3.636V5.939L3.4,5.868a2,2,0,0,1-.377-.155l-.217-.119-.943.943L1.4,6.068l.943-.943L2.22,4.909a1.98,1.98,0,0,1-.156-.378L1.993,4.3H.661Zm0,0" transform="translate(0 0)"/><path class="a" d="M65.322,66.644A1.322,1.322,0,1,0,64,65.322,1.322,1.322,0,0,0,65.322,66.644Zm0-1.983a.661.661,0,1,1-.661.661A.661.661,0,0,1,65.322,64.661Zm0,0" transform="translate(-61.356 -61.356)"/><path class="a" d="M294.4,290.935l1.069-1.07-1.4-1.4-1.07,1.07-.041-.018V288h-1.983v1.515l-.041.017-1.07-1.069-1.4,1.4,1.07,1.07-.017.041H288v1.983h1.515l.017.041-1.069,1.07,1.4,1.4,1.07-1.07.041.017v1.516h1.983v-1.515L293,294.4l1.07,1.069,1.4-1.4L294.4,293c.006-.013.011-.027.017-.041h1.516v-1.983h-1.515Zm.87,1.363H293.94l-.072.234a1.98,1.98,0,0,1-.156.378l-.118.217.943.943-.468.468-.943-.943-.217.119a2,2,0,0,1-.377.155l-.234.071v1.332h-.661V293.94l-.234-.071a2,2,0,0,1-.377-.155l-.217-.119-.943.943-.468-.468.943-.943-.118-.217a1.98,1.98,0,0,1-.156-.378l-.072-.234h-1.332v-.661h1.332l.072-.234a1.985,1.985,0,0,1,.156-.378l.118-.217-.943-.943.468-.468.943.943.217-.119a2,2,0,0,1,.377-.155l.234-.072v-1.332h.661v1.332l.234.072a2,2,0,0,1,.377.155l.217.119.943-.943.468.468-.943.943.118.217a1.984,1.984,0,0,1,.156.378l.072.234h1.332Zm0,0" transform="translate(-276.101 -276.101)"/><path class="a" d="M353.322,352a1.322,1.322,0,1,0,1.322,1.322A1.322,1.322,0,0,0,353.322,352Zm0,1.983a.661.661,0,1,1,.661-.661A.661.661,0,0,1,353.322,353.983Zm0,0" transform="translate(-337.456 -337.456)"/><path class="a" d="M218.577,9.255V0h-1.983V9.255h-.661V1.983H213.95V9.255h-.661V3.967h-1.983V9.255h-.661V5.95h-1.983V9.255H208v.661h11.238V9.255Zm-9.255,0V6.611h.661V9.255Zm2.644,0V4.628h.661V9.255Zm2.644,0V2.644h.661V9.255Zm2.644,0V.661h.661V9.255Zm0,0" transform="translate(-199.406 0)"/><path class="a" d="M192,16h.661v.661H192Zm0,0" transform="translate(-184.067 -15.339)"/><path class="a" d="M224,16h.661v.661H224Zm0,0" transform="translate(-214.745 -15.339)"/><path class="a" d="M256,16h.661v.661H256Zm0,0" transform="translate(-245.423 -15.339)"/><path class="a" d="M288,16h.661v.661H288Zm0,0" transform="translate(-276.1 -15.339)"/><path class="a" d="M320,16h.661v.661H320Zm0,0" transform="translate(-306.778 -15.339)"/><path class="a" d="M352,16h.661v.661H352Zm0,0" transform="translate(-337.456 -15.339)"/><path class="a" d="M384,16h.661v.661H384Zm0,0" transform="translate(-368.134 -15.339)"/><path class="a" d="M4.958,240a4.958,4.958,0,1,0,4.958,4.958A4.958,4.958,0,0,0,4.958,240Zm4.28,4.628H5.289v-3.95A4.3,4.3,0,0,1,9.238,244.628Zm-3.619.661H9.238a4.271,4.271,0,0,1-1.021,2.461Zm-4.958-.331a4.3,4.3,0,0,1,3.967-4.28v4.611l3.123,2.929a4.291,4.291,0,0,1-7.089-3.259Zm0,0" transform="translate(0 -230.084)"/></g></svg>