<svg xmlns="http://www.w3.org/2000/svg" width="27.62" height="27.62" viewBox="0 0 27.62 27.62"><defs><style>.a{fill:#6f23bb;}</style></defs><path class="a" d="M10.127,0C4.354,0,0,1.781,0,4.143V23.477c0,2.362,4.354,4.143,10.127,4.143s10.127-1.781,10.127-4.143V4.143C20.255,1.781,15.9,0,10.127,0Zm9.207,23.477c0,1.524-3.781,3.222-9.207,3.222S.921,25,.921,23.477V5.93c1.573,1.418,5.016,2.356,9.207,2.356s7.634-.939,9.207-2.356ZM10.127,7.365C4.7,7.365.921,5.667.921,4.143S4.7.921,10.127.921s9.207,1.7,9.207,3.222S15.553,7.365,10.127,7.365Z"/><g transform="translate(21.176)"><path class="a" d="M398.518,0h-5.524a.46.46,0,0,0-.46.46v26.7a.46.46,0,0,0,.46.46h5.524a.46.46,0,0,0,.46-.46V.46A.46.46,0,0,0,398.518,0Zm-.46,26.7h-4.6V25.319h.921a.46.46,0,1,0,0-.921h-.921V22.557H395.3a.46.46,0,1,0,0-.921h-1.841V19.795h.921a.46.46,0,1,0,0-.921h-.921V17.033H395.3a.46.46,0,1,0,0-.921h-1.841V14.271h.921a.46.46,0,1,0,0-.921h-.921V11.509H395.3a.46.46,0,1,0,0-.921h-1.841V8.747h.921a.46.46,0,1,0,0-.921h-.921V5.985H395.3a.46.46,0,1,0,0-.921h-1.841V3.222h.921a.46.46,0,1,0,0-.921h-.921V.921h4.6Z" transform="translate(-392.534)"/></g></svg>