<svg xmlns="http://www.w3.org/2000/svg" width="115.857" height="112.341" viewBox="0 0 115.857 112.341"><defs><style>.a{opacity:0.1;}.b{fill:#f8f4fc;}</style></defs><g class="a" transform="translate(40.179) rotate(31)"><path class="b" d="M250.616,280.616a13.081,13.081,0,1,0,20.928,0L261.08,266.664Zm19.807,7.848a9.343,9.343,0,1,1-16.817-5.606l7.474-9.965,7.474,9.967A9.385,9.385,0,0,1,270.423,288.464Z" transform="translate(-207.875 -233.486)"/><path class="b" d="M175.544,112.618,165.08,98.664l-10.464,13.952a13.081,13.081,0,1,0,20.928,0ZM165.08,129.807a9.343,9.343,0,0,1-7.474-14.948l7.474-9.965,7.474,9.967a9.341,9.341,0,0,1-7.474,14.946Z" transform="translate(-127.407 -86.388)"/><path class="b" d="M82.593,33.973c-3.141,0-5.7,2.257-5.7,5.033a4.481,4.481,0,0,0,.332,1.628l-6.038,3.2L55.536,35.767V19.6l17.088-8.808V0H69.777V9.344L54.112,17.418,38.448,9.344V0H35.6V9.344L19.962,17.4,11.2,12.564a4.437,4.437,0,0,0,.2-1.239c0-2.776-2.555-5.033-5.7-5.033S0,8.549,0,11.324s2.555,5.033,5.7,5.033a6.041,6.041,0,0,0,4.128-1.584l8.688,4.8v16.2L2.13,44.21l1.435,2.176,16.37-8.44,7.832,4.036L35.6,46.018V62.189l-14.338,7.39a6.018,6.018,0,0,0-4.174-1.633c-3.141,0-5.7,2.257-5.7,5.033s2.555,5.033,5.7,5.033,5.7-2.257,5.7-5.033A4.449,4.449,0,0,0,22.61,71.8l14.414-7.43,15.664,8.073v5.569h2.848V72.443l6.9-3.557,8.772-4.521,9.255,4.673,1.413-2.184-9.25-4.671V46.009L78.8,42.734a6.078,6.078,0,0,0,3.791,1.3c3.141,0,5.7-2.257,5.7-5.033S85.734,33.973,82.593,33.973ZM5.7,13.841a2.7,2.7,0,0,1-2.848-2.517A2.7,2.7,0,0,1,5.7,8.808a2.7,2.7,0,0,1,2.848,2.517A2.7,2.7,0,0,1,5.7,13.841ZM17.088,75.5a2.536,2.536,0,1,1,0-5.033,2.536,2.536,0,1,1,0,5.033ZM29.192,39.8,21.36,35.767V19.6l15.664-8.074L52.688,19.6V35.767L44.856,39.8,37.024,43.84ZM69.777,62.19l-8.785,4.528-6.879,3.546L38.448,62.19V46.019l7.832-4.036,7.832-4.036,15.664,8.074ZM82.593,41.522a2.536,2.536,0,1,1,2.848-2.517A2.7,2.7,0,0,1,82.593,41.522Z"/><rect class="b" width="4" height="3" transform="translate(71.144 26.006)"/><rect class="b" width="4" height="3" transform="translate(69.144 26.006)"/><rect class="b" width="4" height="3" transform="translate(63.144 26.006)"/><rect class="b" width="4" height="4" transform="translate(24.144 52.006)"/><rect class="b" width="4" height="4" transform="translate(18.144 52.006)"/><rect class="b" width="3" height="4" transform="translate(17.144 52.006)"/></g></svg>