<svg xmlns="http://www.w3.org/2000/svg" width="23.637" height="24.4" viewBox="0 0 23.637 24.4"><defs><style>.a{fill:#1a3365;}</style></defs><g transform="translate(-8.008 0)"><g transform="translate(8.008 0)"><g transform="translate(0)"><path class="a" d="M30.863,14.292H30.5V11a1.544,1.544,0,0,0-.655-1.262V9.294a1.179,1.179,0,0,0-1.178-1.178h-.273l1.043-1.531a1.127,1.127,0,0,0-.3-1.565L22.061.2a1.126,1.126,0,0,0-1.565.3l-6.11,8.965h-1.7l.41-4.152a.123.123,0,0,1,.077-.1,2.643,2.643,0,0,0,1.29-1.048.122.122,0,0,1,.116-.054l2.667.263a.348.348,0,1,0,.068-.692l-2.667-.263a.814.814,0,0,0-.771.373,1.943,1.943,0,0,1-.948.77.813.813,0,0,0-.524.686l-.417,4.221h-.443l.649-6.567a.431.431,0,0,1,.471-.386l5.389.532a.348.348,0,0,0,.068-.692l-5.389-.532A1.128,1.128,0,0,0,11.5,2.822l-.523,5.293h-.89A1.179,1.179,0,0,0,8.909,9.294V9.6a1.547,1.547,0,0,0-.9,1.4V22.855A1.547,1.547,0,0,0,9.553,24.4h19.4A1.547,1.547,0,0,0,30.5,22.855V19.566h.365a.782.782,0,0,0,.782-.782V15.074A.782.782,0,0,0,30.863,14.292Zm-2.2-5.481h0a.483.483,0,0,1,.483.483v.177a1.549,1.549,0,0,0-.2-.013H27.478l.441-.647ZM21.071.884A.428.428,0,0,1,21.347.7.437.437,0,0,1,21.428.7a.428.428,0,0,1,.242.075l7.079,4.824a.431.431,0,0,1,.113.6L26.636,9.458H26.1l1.091-1.6A.813.813,0,0,0,27.231,7,1.943,1.943,0,0,1,27,5.8a.813.813,0,0,0-.352-.78l-3.669-2.5a.813.813,0,0,0-.855-.042,1.944,1.944,0,0,1-1.2.222.823.823,0,0,0-.789.351l-4.37,6.413h-.534Zm.153,5.9a2.869,2.869,0,0,0-2.858,2.67H16.6l4.1-6.021h0a.124.124,0,0,1,.1-.055h.016a2.643,2.643,0,0,0,1.634-.3.123.123,0,0,1,.127.008l3.67,2.5a.123.123,0,0,1,.054.116,2.643,2.643,0,0,0,.317,1.631.123.123,0,0,1-.007.129L25.261,9.458H24.082A2.869,2.869,0,0,0,21.224,6.788Zm2.161,2.67H19.063a2.17,2.17,0,0,1,4.322,0ZM9.6,9.294a.483.483,0,0,1,.483-.483h.822l-.064.647H9.6ZM8.7,11a.851.851,0,0,1,.85-.85h19.4a.851.851,0,0,1,.85.85v.965H8.7ZM29.8,22.855a.851.851,0,0,1-.85.85H9.553a.851.851,0,0,1-.85-.85v-.965h1.875a.348.348,0,0,0,0-.7H8.7V12.663H29.8v1.629H26.5a2.64,2.64,0,0,0-2.372,1.486l0,.009-.01.023a2.622,2.622,0,0,0-.131.336h0A2.638,2.638,0,0,0,26.5,19.566H29.8V21.2h-17a.348.348,0,0,0,0,.7h17Zm1.147-4.071a.086.086,0,0,1-.086.086H26.5a1.943,1.943,0,0,1-1.707-1.017q-.022-.041-.043-.084-.041-.085-.074-.174a1.944,1.944,0,0,1,0-1.334q.033-.089.074-.174.021-.042.043-.084A1.943,1.943,0,0,1,26.5,14.988h4.366a.086.086,0,0,1,.086.086Z" transform="translate(-8.008 0)"/></g></g><g transform="translate(25.168 15.519)"><path class="a" d="M369.492,325.627a1.411,1.411,0,1,0,1.411,1.411A1.412,1.412,0,0,0,369.492,325.627Zm0,2.126a.715.715,0,1,1,.715-.715A.716.716,0,0,1,369.492,327.753Z" transform="translate(-368.081 -325.627)"/></g></g></svg>