<svg xmlns="http://www.w3.org/2000/svg" width="19.333" height="15.83" viewBox="0 0 19.333 15.83"><defs><style>.a{fill:#fff;}</style></defs><g transform="translate(-10 -98.9)"><g transform="translate(10 98.9)"><path class="a" d="M28.615,107.831h-2.64V105.3h2.64a.718.718,0,1,0,0-1.436h-2.64V100.34a1.692,1.692,0,0,0-.3-1.121.964.964,0,0,0-.787-.32.926.926,0,0,0-.758.318,1.722,1.722,0,0,0-.3,1.123v3.519H18.868l-2.111-3.194c-.181-.284-.351-.552-.515-.809a3.582,3.582,0,0,0-.43-.558,1.345,1.345,0,0,0-.42-.294,1.4,1.4,0,0,0-.576-.1,1.453,1.453,0,0,0-.811.245,1.339,1.339,0,0,0-.531.616,3.159,3.159,0,0,0-.142,1.077v3.024H10.718a.718.718,0,0,0,0,1.436H13.33v2.537H10.718a.718.718,0,1,0,0,1.436H13.33v4.019a1.661,1.661,0,0,0,.312,1.109.969.969,0,0,0,.787.331.983.983,0,0,0,.781-.331,1.625,1.625,0,0,0,.318-1.109v-4.023h4.494L22.452,113c.17.247.343.5.517.74a3.533,3.533,0,0,0,.509.574,1.589,1.589,0,0,0,.519.318,1.921,1.921,0,0,0,.647.1c.657,0,1.332-.2,1.332-1.695v-3.766h2.64a.718.718,0,1,0,0-1.436ZM23.831,105.3v2.537H21.494L19.817,105.3Zm-8.3-2.916.965,1.48H15.53Zm0,5.451V105.3h1.9l1.655,2.537H15.53Zm8.3,3.541-1.391-2.1h1.391Z" transform="translate(-10 -98.9)"/></g></g></svg>