<svg xmlns="http://www.w3.org/2000/svg" width="44.864" height="44.864" viewBox="0 0 44.864 44.864"><defs><style>.a{opacity:0.1;}.b{fill:#fff;}</style></defs><g class="a"><path class="b" d="M205.427,209.447h-.362V208h-1.447v1.447h-.362a3.256,3.256,0,1,0,0,6.513h2.171a1.809,1.809,0,1,1,0,3.618h-2.171a1.812,1.812,0,0,1-1.809-1.809v-.362H200v.362a3.26,3.26,0,0,0,3.256,3.256h.362v1.447h1.447v-1.447h.362a3.256,3.256,0,1,0,0-6.513h-2.171a1.809,1.809,0,0,1,0-3.618h2.171a1.812,1.812,0,0,1,1.809,1.809v.362h1.447V212.7A3.26,3.26,0,0,0,205.427,209.447Z" transform="translate(-181.91 -189.186)"/><rect class="b" width="1" height="1" transform="translate(27.432 25.432)"/><rect class="b" width="1" height="1" transform="translate(16.432 25.432)"/><path class="b" d="M41.634,18.814a19.43,19.43,0,0,0-.766-2.849l2.8-1.616L40.05,8.083,37.247,9.7a19.73,19.73,0,0,0-2.083-2.083l1.617-2.8L30.514,1.2,28.9,4A19.484,19.484,0,0,0,26.05,3.23V0H18.814V3.23A19.43,19.43,0,0,0,15.965,4L14.349,1.2,8.083,4.814,9.7,7.618A19.731,19.731,0,0,0,7.617,9.7l-2.8-1.618L1.2,14.349,4,15.965a19.43,19.43,0,0,0-.766,2.849H0V26.05H3.23A19.43,19.43,0,0,0,4,28.9L1.2,30.515l3.618,6.267,2.8-1.617A19.731,19.731,0,0,0,9.7,37.248l-1.617,2.8,6.267,3.618,1.616-2.8a19.381,19.381,0,0,0,2.849.766v3.23h7.236v-3.23a19.43,19.43,0,0,0,2.849-.766l1.616,2.8,6.267-3.618-1.617-2.8a19.731,19.731,0,0,0,2.083-2.083l2.8,1.617,3.618-6.267L40.87,28.9a19.381,19.381,0,0,0,.766-2.849h3.229V18.814ZM43.417,24.6H40.4l-.095.613A17.982,17.982,0,0,1,39.3,28.959l-.224.578,2.612,1.508L39.52,34.8,36.907,33.3l-.389.482a18.238,18.238,0,0,1-2.74,2.74l-.482.389,1.509,2.613-3.76,2.171-1.508-2.612-.578.224a17.994,17.994,0,0,1-3.743,1.006L24.6,40.4v3.013H20.261V40.4l-.613-.095A17.982,17.982,0,0,1,15.906,39.3l-.578-.224L13.82,41.691,10.06,39.52l1.509-2.613-.482-.389a18.238,18.238,0,0,1-2.74-2.74L7.958,33.3,5.345,34.8l-2.171-3.76,2.612-1.508-.224-.578a17.994,17.994,0,0,1-1.006-3.743L4.46,24.6H1.447V20.261H4.46l.095-.613a17.982,17.982,0,0,1,1.006-3.743l.224-.578L3.174,13.82l2.171-3.76,2.613,1.509.389-.482a18.238,18.238,0,0,1,2.74-2.74l.482-.389L10.06,5.345l3.76-2.171,1.508,2.612.578-.224a17.994,17.994,0,0,1,3.743-1.006l.613-.095V1.447H24.6V4.46l.613.095a17.982,17.982,0,0,1,3.743,1.006l.578.224,1.508-2.612L34.8,5.345,33.3,7.958l.482.389a18.238,18.238,0,0,1,2.74,2.74l.389.482L39.52,10.06l2.171,3.76-2.612,1.508.224.578a17.994,17.994,0,0,1,1.006,3.743l.095.613h3.013Z"/><path class="b" d="M118.7,74.288,117.025,71.2l-1.673,3.088a13,13,0,0,0-7.705,21.928,9.972,9.972,0,0,0,9.207,6.172h.341a9.973,9.973,0,0,0,9.207-6.172,13,13,0,0,0-7.7-21.928Zm-11.8,18.139c0,.132.014.26.02.39a11.556,11.556,0,0,1,7.562-16.911L108.1,87.683A10,10,0,0,0,106.894,92.427Zm10.3,8.513h-.341a8.514,8.514,0,0,1-7.485-12.569l7.656-14.133,7.656,14.134a8.513,8.513,0,0,1-7.486,12.568Zm9.941-8.123c.005-.13.02-.258.02-.39a9.995,9.995,0,0,0-1.2-4.744l-6.379-11.777a11.556,11.556,0,0,1,7.562,16.911Z" transform="translate(-94.593 -64.76)"/></g></svg>