<svg xmlns="http://www.w3.org/2000/svg" width="54" height="54" viewBox="0 0 54 54"><defs><style>.a{opacity:0.1;}.b{fill:#fff;}</style></defs><g class="a"><path class="b" d="M50.516,0a3.469,3.469,0,0,0-2.23,6.139L42.1,20.062c-.1-.009-.192-.03-.292-.03a3.475,3.475,0,0,0-2.852,1.495l-9.694-5.22a3.449,3.449,0,0,0,.353-1.5,3.484,3.484,0,1,0-6.968,0,3.449,3.449,0,0,0,.537,1.839l-6.866,8.392-4.123-6.659L1.826,35.125A12.188,12.188,0,0,0,0,41.543v.263A12.17,12.17,0,0,0,21.833,49.23,12.2,12.2,0,1,0,19.9,30.824L17.285,26.6l7.168-8.761a3.41,3.41,0,0,0,3.656-.177l10.246,5.518c-.01.111-.033.219-.033.333a3.484,3.484,0,1,0,5.43-2.888L49.854,6.9A3.482,3.482,0,1,0,50.516,0ZM28.742,28.742A10.452,10.452,0,1,1,18.29,39.194,10.463,10.463,0,0,1,28.742,28.742ZM18.733,32.249A12.132,12.132,0,0,0,20.48,48.135,10.431,10.431,0,0,1,1.742,41.806v-.263a10.445,10.445,0,0,1,1.564-5.5l8.887-14.355Zm7.4-15.7a1.742,1.742,0,1,1,1.742-1.742A1.744,1.744,0,0,1,26.129,16.548Zm15.677,8.71a1.742,1.742,0,1,1,1.742-1.742A1.744,1.744,0,0,1,41.806,25.258Zm8.71-20.032a1.742,1.742,0,1,1,1.742-1.742A1.744,1.744,0,0,1,50.516,5.226Z"/><path class="b" d="M219.919,295.677h.435v1.742H222.1v-1.742h.435a3.919,3.919,0,1,0,0-7.839h-2.613a2.177,2.177,0,1,1,0-4.355h2.613a2.18,2.18,0,0,1,2.177,2.177v.435h1.742v-.435a3.924,3.924,0,0,0-3.919-3.919H222.1V280h-1.742v1.742h-.435a3.919,3.919,0,1,0,0,7.839h2.613a2.177,2.177,0,1,1,0,4.355h-2.613a2.18,2.18,0,0,1-2.177-2.177v-.435H216v.435A3.924,3.924,0,0,0,219.919,295.677Z" transform="translate(-192.484 -249.516)"/><rect class="b" width="2" height="1" transform="translate(3 43)"/><rect class="b" width="2" height="2" transform="translate(5 45)"/><rect class="b" width="2" height="2" transform="translate(7 48)"/><rect class="b" width="1" height="1" transform="translate(51 9)"/><rect class="b" width="1" height="2" transform="translate(51 12)"/><rect class="b" width="1" height="1" transform="translate(51 16)"/><rect class="b" width="2" height="1" transform="translate(47 16)"/><rect class="b" width="2" height="2" transform="translate(47 19)"/><rect class="b" width="2" height="1" transform="translate(47 23)"/></g></svg>