<svg xmlns="http://www.w3.org/2000/svg" width="76.842" height="76.842" viewBox="0 0 76.842 76.842"><defs><style>.a{opacity:0.1;}.b{fill:#fff;}</style></defs><g class="a" transform="translate(0 21.315) rotate(-21)"><path class="b" d="M40.538,28.779H40.7a2.161,2.161,0,0,1,.74.13l9.716,3.532,2.983,4.971h5.34V35.495H55.224l-2.774-4.622L44.057,27.82h.071V19.186H32.617V16.308h1.919V14.39H32.617V1.919h1.919V0H0V1.919H1.919V14.39H0v1.919H1.919v13.43H0v1.919H1.919V44.128H0v1.919H19.186v13.43H44.128V51.8h9.031l2.878-2.878h3.44V47.006H55.243l-2.878,2.878H44.128V35.941l-4.792-3.195a2.165,2.165,0,0,1,1.2-3.967ZM3.837,1.919H30.7V14.39H22.979a5.707,5.707,0,0,0-1.027-2.768L17.268,5.065l-4.684,6.557a5.707,5.707,0,0,0-1.027,2.768H3.837ZM30.7,16.308v2.878H21.546a5.736,5.736,0,0,0,1.391-2.878ZM19.186,44.128H3.837V31.657H19.186Zm0-14.39H3.837V16.308H11.6a5.732,5.732,0,0,0,7.588,4.461ZM17.268,19.186a3.841,3.841,0,0,1-3.837-3.837v-.381a3.817,3.817,0,0,1,.715-2.23l3.123-4.373,3.123,4.372a3.822,3.822,0,0,1,.715,2.231v.381A3.841,3.841,0,0,1,17.268,19.186ZM36.454,30.945a4.094,4.094,0,0,0,.249,1.4,8.666,8.666,0,1,0,2.312,2.5l3.195,2.13V57.559H21.1V21.1h21.1v6.044l-.114-.041a4.048,4.048,0,0,0-1.4-.247h-.162A4.089,4.089,0,0,0,36.454,30.945Zm1.919,8.387a6.715,6.715,0,1,1-6.715-6.715A6.723,6.723,0,0,1,38.373,39.332Z"/><rect class="b" width="2" height="2" transform="translate(22.739 22.739)"/><rect class="b" width="2" height="2" transform="translate(38.739 22.739)"/><rect class="b" width="2" height="2" transform="translate(38.739 53.739)"/><rect class="b" width="2" height="2" transform="translate(22.739 53.739)"/><path class="b" d="M234.878,282.878H236.8a.96.96,0,0,1,.959.959h1.919a2.881,2.881,0,0,0-2.878-2.878V280h-1.919v.959a2.878,2.878,0,0,0,0,5.756H236.8a.959.959,0,1,1,0,1.919h-1.919a.96.96,0,0,1-.959-.959H232a2.881,2.881,0,0,0,2.878,2.878v.959H236.8v-.959a2.878,2.878,0,0,0,0-5.756h-1.919a.959.959,0,0,1,0-1.919Z" transform="translate(-204.18 -246.424)"/></g></svg>