<svg xmlns="http://www.w3.org/2000/svg" width="16.408" height="16.408" viewBox="0 0 16.408 16.408"><defs><style>.a{fill:#fff;}</style></defs><path class="a" d="M56.955,62.281a5.327,5.327,0,1,0,5.327-5.327A5.333,5.333,0,0,0,56.955,62.281Zm9.9,0a4.569,4.569,0,1,1-4.57-4.57A4.575,4.575,0,0,1,66.852,62.281Z" transform="translate(-54.078 -54.077)"/><path class="a" d="M130.816,103.325v.593a1.616,1.616,0,0,0-.6.279,1.332,1.332,0,0,0-.609,1.386,1.281,1.281,0,0,0,1.128.9c1.3.183,1.517.378,1.461.835a.617.617,0,0,1-.416.518,1.916,1.916,0,0,1-1.812-.444l-.475.591a3.167,3.167,0,0,0,1.322.639v.673h.758v-.633a1.877,1.877,0,0,0,.492-.123,1.378,1.378,0,0,0,.883-1.128,1.214,1.214,0,0,0-.662-1.306,4.469,4.469,0,0,0-1.446-.371.544.544,0,0,1-.5-.337c-.047-.185.074-.406.325-.59a.96.96,0,0,1,.954-.088,2.1,2.1,0,0,1,.558.311l.243-.291.244-.29a2.8,2.8,0,0,0-.762-.433,2.3,2.3,0,0,0-.329-.1v-.594Z" transform="translate(-122.953 -98.106)"/><path class="a" d="M8.2.758a7.392,7.392,0,0,1,4.46,1.482h-1V3h2.438V.56h-.758V1.812A8.2,8.2,0,0,0,0,8.2H.758A7.455,7.455,0,0,1,8.2.758Z"/><path class="a" d="M60.735,162.421a7.448,7.448,0,0,1-11.8,6.04h.989V167.7H47.483v2.438h.758v-1.253a8.2,8.2,0,0,0,13.252-6.468Z" transform="translate(-45.085 -154.217)"/></svg>