<svg
    xmlns="http://www.w3.org/2000/svg"
    viewBox="0 0 55 51"
    id="vector">
    <path
        id="path"
        d="M 4.821 1 L 35.821 1 L 35.821 47 L 4.821 47 Z"
        fill="#8937da"/>
    <path
        id="path_1"
        d="M 31.427 5.994 L 31.342 5.952 C 30.914 5.534 30.34 5.298 29.742 5.291 L 9.916 5.291 C 9.296 5.293 8.701 5.541 8.263 5.979 C 7.825 6.418 7.578 7.013 7.576 7.633 L 7.576 23.743 C 7.578 24.363 7.825 24.957 8.263 25.394 C 8.702 25.832 9.297 26.078 9.916 26.078 L 14.576 26.078 C 14.709 26.079 14.84 26.045 14.956 25.979 C 15.072 25.914 15.168 25.819 15.236 25.704 C 15.303 25.59 15.339 25.459 15.34 25.326 L 15.34 25.308 C 15.342 25.278 15.342 25.247 15.34 25.217 L 15.34 24.859 C 15.34 23.663 15.816 22.515 16.661 21.67 C 17.507 20.824 18.655 20.349 19.85 20.349 C 21.046 20.349 22.194 20.824 23.039 21.67 C 23.885 22.515 24.36 23.663 24.36 24.859 L 24.36 25.247 C 24.349 25.38 24.373 25.513 24.43 25.633 C 24.486 25.754 24.574 25.857 24.683 25.933 C 24.792 26.009 24.92 26.055 25.052 26.066 L 29.777 26.066 C 30.396 26.066 30.99 25.82 31.429 25.383 C 31.867 24.946 32.114 24.352 32.116 23.733 L 32.116 7.65 C 32.116 7.342 32.055 7.037 31.937 6.753 C 31.819 6.469 31.646 6.211 31.427 5.994 Z M 29.741 24.562 L 25.847 24.562 C 25.761 23.024 25.088 21.577 23.969 20.519 C 22.85 19.46 21.367 18.87 19.827 18.87 C 18.287 18.87 16.803 19.46 15.684 20.519 C 14.565 21.577 13.893 23.024 13.806 24.562 L 9.916 24.562 C 9.766 24.566 9.618 24.529 9.487 24.455 C 9.357 24.381 9.249 24.272 9.175 24.142 C 9.101 24.011 9.064 23.863 9.067 23.713 L 9.067 7.65 C 9.069 7.433 9.156 7.226 9.309 7.073 C 9.462 6.919 9.67 6.833 9.886 6.831 L 29.741 6.831 C 29.884 6.828 30.026 6.864 30.15 6.936 C 30.274 7.008 30.375 7.113 30.444 7.239 C 30.512 7.365 30.544 7.507 30.536 7.65 L 30.56 23.743 C 30.56 23.887 30.522 24.028 30.45 24.152 C 30.379 24.277 30.275 24.38 30.151 24.452 C 30.026 24.524 29.885 24.562 29.741 24.562 Z"
        fill="#ffffff"/>
    <path
        id="path_2"
        d="M 55.218 5.023 C 54.823 4.628 54.286 4.405 53.727 4.405 L 47.594 4.405 C 47.478 4.402 47.363 4.426 47.258 4.474 C 47.153 4.522 47.06 4.594 46.987 4.684 L 43.6 8.323 C 43.53 8.399 43.476 8.487 43.442 8.584 C 43.408 8.681 43.393 8.784 43.4 8.887 L 43.4 12.363 C 43.4 12.502 43.439 12.639 43.512 12.757 C 43.584 12.876 43.688 12.972 43.812 13.036 L 43.812 37.13 C 43.811 37.346 43.746 37.557 43.627 37.737 C 43.507 37.917 43.338 38.058 43.139 38.143 C 42.943 38.207 42.738 38.238 42.532 38.234 L 40.854 38.234 L 40.854 37.9 C 40.853 37.468 40.681 37.053 40.375 36.747 C 40.069 36.441 39.654 36.269 39.222 36.268 L 36.7 36.268 L 36.7 3.368 C 36.694 2.5 36.353 1.667 35.748 1.045 L 35.706 0.996 C 35.393 0.681 35.021 0.43 34.61 0.26 C 34.2 0.089 33.76 0.001 33.316 0.001 L 6.624 0.001 C 5.729 0.003 4.87 0.359 4.236 0.992 C 3.603 1.626 3.247 2.485 3.245 3.38 L 3.245 46.902 L 2.469 46.902 C 1.816 46.904 1.189 47.165 0.728 47.628 C 0.267 48.091 0.008 48.718 0.008 49.371 C 0.008 50.024 0.267 50.651 0.728 51.114 C 1.189 51.577 1.816 51.838 2.469 51.84 L 37.463 51.84 C 38.11 51.841 38.731 51.588 39.193 51.135 C 39.654 50.682 39.919 50.066 39.93 49.419 C 39.942 48.773 39.698 48.147 39.252 47.679 L 39.203 47.63 C 38.974 47.399 38.702 47.216 38.402 47.091 C 38.102 46.967 37.781 46.902 37.456 46.902 L 36.7 46.902 L 36.7 44.723 L 39.23 44.723 C 39.662 44.721 40.077 44.549 40.382 44.243 C 40.688 43.938 40.86 43.523 40.862 43.091 L 40.862 42.753 L 42.542 42.753 C 43.343 42.746 44.136 42.605 44.89 42.334 C 45.914 41.901 46.79 41.178 47.408 40.255 C 48.027 39.331 48.362 38.246 48.372 37.134 L 48.372 37.134 L 48.372 13.018 C 48.495 12.954 48.599 12.858 48.672 12.739 L 51.305 8.614 L 53.731 8.614 C 54.148 8.616 54.556 8.493 54.903 8.262 C 55.25 8.031 55.52 7.702 55.679 7.317 C 55.839 6.932 55.88 6.509 55.798 6.1 C 55.716 5.691 55.514 5.316 55.218 5.023 Z M 4.78 3.367 C 4.782 2.874 4.978 2.401 5.327 2.052 C 5.676 1.703 6.149 1.507 6.642 1.505 L 33.332 1.505 C 33.577 1.505 33.819 1.553 34.044 1.647 C 34.27 1.74 34.475 1.878 34.648 2.051 L 34.684 2.081 C 35.014 2.425 35.199 2.884 35.2 3.361 L 35.2 46.902 L 4.78 46.902 Z M 37.463 48.394 L 37.463 48.424 C 37.588 48.424 37.712 48.448 37.827 48.496 C 37.943 48.544 38.048 48.614 38.136 48.703 L 38.166 48.703 C 38.335 48.885 38.425 49.127 38.419 49.375 C 38.412 49.623 38.309 49.859 38.131 50.033 C 37.953 50.206 37.714 50.303 37.466 50.303 L 2.469 50.303 C 2.228 50.287 2.001 50.18 1.836 50.004 C 1.671 49.828 1.579 49.595 1.579 49.353 C 1.579 49.111 1.671 48.878 1.836 48.702 C 2.001 48.526 2.228 48.419 2.469 48.403 Z M 39.337 38.994 L 39.337 43.089 C 39.337 43.119 39.325 43.149 39.303 43.17 C 39.282 43.192 39.252 43.204 39.222 43.204 L 36.7 43.204 L 36.7 37.785 L 39.23 37.785 C 39.245 37.784 39.259 37.787 39.273 37.792 C 39.286 37.797 39.298 37.805 39.309 37.815 C 39.331 37.836 39.344 37.864 39.345 37.894 Z M 46.537 38.703 C 46.228 39.456 45.701 40.1 45.024 40.553 C 44.348 41.005 43.551 41.246 42.737 41.245 L 40.857 41.245 L 40.857 39.745 L 42.731 39.745 C 43.424 39.745 44.089 39.469 44.579 38.979 C 45.069 38.489 45.345 37.824 45.345 37.131 L 45.345 13.096 L 46.845 13.096 L 46.851 37.129 C 46.851 37.668 46.745 38.203 46.538 38.701 Z M 54.174 6.903 C 54.062 7.012 53.911 7.073 53.755 7.073 L 50.893 7.073 C 50.766 7.074 50.641 7.106 50.529 7.168 C 50.418 7.229 50.324 7.318 50.256 7.425 L 47.611 11.586 L 44.931 11.586 L 44.931 9.117 L 47.922 5.896 L 53.757 5.896 C 53.909 5.905 54.052 5.971 54.158 6.081 C 54.263 6.191 54.324 6.336 54.327 6.488 C 54.331 6.641 54.277 6.789 54.176 6.903 Z"
        fill="#6f23bb"/>
    <path
        id="path_3"
        d="M 8.821 7 L 31.821 7 L 31.821 25 L 8.821 25 Z"
        fill="#ffffff"/>
    <path
        id="path_4"
        d="M 26.486 11.91 C 24.772 10.196 22.444 9.231 20.019 9.231 C 17.594 9.231 15.267 10.196 13.552 11.91 C 11.837 13.625 10.873 15.952 10.873 18.377 C 10.872 19.434 11.055 20.483 11.413 21.477 C 11.449 21.589 11.519 21.686 11.615 21.754 C 11.71 21.822 11.825 21.857 11.942 21.854 C 12.059 21.851 12.172 21.81 12.264 21.738 C 12.356 21.665 12.422 21.565 12.452 21.452 C 12.482 21.338 12.474 21.219 12.43 21.11 C 12.175 20.402 12.021 19.661 11.973 18.91 L 13.635 18.91 C 13.75 18.91 13.861 18.874 13.954 18.807 C 14.047 18.74 14.116 18.645 14.151 18.537 C 14.187 18.428 14.187 18.31 14.151 18.201 C 14.116 18.093 14.047 17.998 13.954 17.931 C 13.861 17.864 13.75 17.828 13.635 17.828 L 11.973 17.828 C 12.042 16.78 12.317 15.756 12.781 14.814 L 14.22 15.645 C 14.344 15.715 14.491 15.734 14.629 15.696 C 14.767 15.659 14.884 15.568 14.955 15.445 C 15.027 15.321 15.046 15.174 15.01 15.036 C 14.974 14.898 14.884 14.78 14.761 14.708 L 13.323 13.887 C 13.909 13.017 14.658 12.268 15.528 11.682 L 16.358 13.12 C 16.415 13.22 16.502 13.299 16.606 13.346 C 16.711 13.394 16.828 13.406 16.94 13.383 C 17.053 13.359 17.155 13.3 17.231 13.215 C 17.308 13.129 17.356 13.021 17.367 12.907 C 17.379 12.793 17.353 12.678 17.295 12.579 L 16.464 11.135 C 17.405 10.674 18.427 10.402 19.473 10.335 L 19.473 11.994 C 19.473 12.137 19.53 12.275 19.632 12.377 C 19.733 12.478 19.871 12.535 20.014 12.535 C 20.158 12.535 20.295 12.478 20.397 12.377 C 20.498 12.275 20.555 12.137 20.555 11.994 L 20.555 10.335 C 21.604 10.401 22.629 10.673 23.573 11.135 L 22.742 12.574 C 22.684 12.673 22.659 12.788 22.67 12.902 C 22.682 13.016 22.729 13.124 22.806 13.21 C 22.883 13.295 22.984 13.354 23.097 13.378 C 23.209 13.401 23.326 13.389 23.431 13.341 C 23.536 13.294 23.622 13.215 23.679 13.115 L 24.509 11.677 C 25.379 12.263 26.128 13.012 26.714 13.882 L 25.276 14.712 C 25.176 14.769 25.097 14.856 25.05 14.96 C 25.002 15.065 24.99 15.182 25.014 15.294 C 25.037 15.407 25.096 15.509 25.182 15.585 C 25.267 15.662 25.375 15.709 25.489 15.721 C 25.603 15.732 25.718 15.707 25.817 15.649 L 27.256 14.818 C 27.721 15.761 27.996 16.786 28.065 17.835 L 26.402 17.835 C 26.259 17.835 26.121 17.892 26.02 17.993 C 25.918 18.095 25.861 18.233 25.861 18.376 C 25.861 18.519 25.918 18.657 26.02 18.759 C 26.121 18.86 26.259 18.917 26.402 18.917 L 28.065 18.917 C 28.02 19.625 27.88 20.325 27.649 20.996 C 27.608 21.105 27.603 21.224 27.636 21.336 C 27.668 21.448 27.735 21.546 27.828 21.617 C 27.92 21.687 28.033 21.726 28.15 21.727 C 28.266 21.729 28.38 21.692 28.474 21.624 C 28.568 21.555 28.638 21.458 28.672 21.347 C 29.227 19.727 29.316 17.983 28.93 16.315 C 28.544 14.647 27.697 13.12 26.487 11.908 Z M 26.486 11.91"
        fill="#8937da"/>
    <path
        id="path_5"
        d="M 23.052 14.572 L 20.746 17.057 C 20.437 16.882 20.077 16.82 19.728 16.883 C 19.378 16.946 19.062 17.129 18.833 17.4 C 18.605 17.672 18.478 18.015 18.476 18.37 C 18.474 18.725 18.596 19.069 18.822 19.344 C 19.047 19.618 19.361 19.805 19.71 19.872 C 20.058 19.939 20.419 19.882 20.73 19.71 C 21.041 19.539 21.282 19.264 21.411 18.934 C 21.541 18.603 21.551 18.238 21.439 17.901 L 23.845 15.308 C 23.941 15.203 23.991 15.064 23.985 14.921 C 23.978 14.779 23.916 14.645 23.812 14.548 C 23.708 14.452 23.569 14.4 23.427 14.404 C 23.285 14.409 23.15 14.469 23.052 14.572 Z M 19.997 18.815 C 19.881 18.815 19.769 18.769 19.687 18.687 C 19.605 18.605 19.559 18.493 19.559 18.377 C 19.559 18.261 19.605 18.149 19.687 18.067 C 19.769 17.985 19.881 17.939 19.997 17.939 C 20.113 17.939 20.225 17.985 20.307 18.067 C 20.389 18.149 20.435 18.261 20.435 18.377 C 20.435 18.493 20.389 18.605 20.307 18.687 C 20.225 18.769 20.113 18.815 19.997 18.815 Z M 19.997 18.815"
        fill="#8937da"/>
</svg>
