<svg
    xmlns="http://www.w3.org/2000/svg"
    viewBox="0 0 24 23"
    id="vector">
    <path
        id="path"
        d="M 15.92 12.753 C 16.152 13.618 16.079 14.536 15.715 15.354 C 15.351 16.172 14.716 16.841 13.919 17.247 C 13.121 17.653 12.207 17.774 11.332 17.588 C 10.456 17.402 9.67 16.92 9.107 16.225 C 8.543 15.529 8.235 14.66 8.235 13.765 C 8.25 13.083 8.429 12.414 8.757 11.816 L 12.145 5.71 L 15.529 11.81 C 15.693 12.109 15.824 12.425 15.92 12.753 Z M 0.333 6.8 L 0.67 7.513 L 1.488 7.125 C 0.421 9.5 0.179 12.165 0.803 14.693 C 1.427 17.22 2.881 19.467 4.931 21.072 C 6.981 22.678 9.51 23.55 12.114 23.55 C 14.159 23.55 16.168 23.011 17.939 21.988 L 17.539 21.306 C 15.045 22.744 12.079 23.134 9.299 22.388 C 6.518 21.643 4.145 19.822 2.705 17.329 C 1.266 14.836 0.875 11.87 1.619 9.089 C 1.762 8.557 1.944 8.037 2.165 7.533 L 2.299 8.372 L 3.077 8.248 L 2.668 5.69 L 0.328 6.799 Z M 22.168 19.717 L 21.968 18.954 L 21.232 19.147 C 23.082 16.819 23.971 13.868 23.717 10.905 C 23.463 7.943 22.084 5.187 19.865 3.207 C 17.646 1.228 14.751 0.171 11.779 0.256 C 8.806 0.34 5.976 1.56 3.873 3.662 L 4.432 4.221 C 6.404 2.25 9.062 1.113 11.849 1.046 C 14.636 0.979 17.345 1.989 19.409 3.863 C 21.473 5.737 22.738 8.336 22.94 11.117 C 23.142 13.898 22.265 16.652 20.493 18.805 L 20.521 17.805 L 19.734 17.783 L 19.662 20.371 L 22.162 19.716 Z M 11.699 16.033 L 11.949 15.286 C 11.627 15.177 11.343 14.977 11.132 14.71 L 10.512 15.198 C 10.818 15.586 11.231 15.876 11.699 16.033 Z M 10.305 12.363 C 10.094 12.752 9.978 13.185 9.966 13.627 C 9.967 13.82 9.989 14.013 10.033 14.201 L 10.033 14.201 C 10.078 14.39 10.145 14.573 10.233 14.746 L 10.94 14.4 C 10.813 14.141 10.752 13.854 10.762 13.565 C 10.772 13.277 10.852 12.995 10.997 12.745 L 12.245 10.496 L 11.556 10.113 L 10.308 12.363 Z M 9.442 12.204 C 9.098 12.799 8.96 13.49 9.05 14.171 C 9.139 14.852 9.451 15.485 9.937 15.971 C 10.422 16.456 11.055 16.769 11.736 16.858 C 12.417 16.948 13.109 16.81 13.703 16.467 C 14.298 16.124 14.763 15.593 15.026 14.959 C 15.289 14.324 15.335 13.62 15.157 12.957 C 15.082 12.693 14.976 12.439 14.843 12.199 L 12.143 7.334 Z"
        fill="#6f23bb"
        stroke="#4b2c72"
        stroke-width="0.5"
        fill-rule="evenodd"/>
</svg>
