<svg xmlns="http://www.w3.org/2000/svg" width="17.16" height="20.919" viewBox="0 0 17.16 20.919"><defs><style>.a{fill:#fff;}</style></defs><g transform="translate(0 0)"><path class="a" d="M15.273,6.971l.88-.88a1.226,1.226,0,0,0-1.733-1.733L13.48,5.3a8.582,8.582,0,0,0-3.266-1.381V2.7h.817a.409.409,0,0,0,.409-.409V1.226A1.227,1.227,0,0,0,10.214,0H6.945A1.227,1.227,0,0,0,5.72,1.226V2.288a.409.409,0,0,0,.409.409h.817V3.916A8.58,8.58,0,0,0,3.679,5.3L2.74,4.358A1.226,1.226,0,0,0,1.007,6.091l.88.88a8.58,8.58,0,1,0,13.387,0ZM15,4.935a.409.409,0,0,1,.578.578l-.844.844q-.285-.293-.6-.558ZM6.537,1.226A.409.409,0,0,1,6.945.818h3.269a.409.409,0,0,1,.409.409V1.88H6.537ZM9.4,2.7V3.8a8.79,8.79,0,0,0-1.634,0V2.7ZM1.584,4.935a.409.409,0,0,1,.578,0l.864.864q-.311.265-.6.558l-.844-.844a.409.409,0,0,1,0-.578Zm7,15.167A7.764,7.764,0,0,1,7.414,4.663a7.888,7.888,0,0,1,2.33,0,7.757,7.757,0,0,1,3.531,1.494,7.836,7.836,0,0,1,1.137,1.059A7.763,7.763,0,0,1,8.58,20.1Zm0,0" transform="translate(0 0)"/><path class="a" d="M181.226,197.72a1.226,1.226,0,0,0,.409-2.381v-2.93a.409.409,0,1,0-.817,0v2.93a1.226,1.226,0,0,0,.409,2.381Zm0-1.634a.409.409,0,1,1-.409.409A.409.409,0,0,1,181.226,196.086Zm0,0" transform="translate(-172.646 -184.155)"/><path class="a" d="M70.48,159.283l-.02-.022-.024-.022a6.151,6.151,0,0,0-2.575-1.525.409.409,0,0,0-.231.784,5.325,5.325,0,0,1,1.951,1.064l-.276.276a.409.409,0,1,0,.578.578l.276-.276a5.262,5.262,0,0,1,1.264,3.045h-.393a.409.409,0,0,0,0,.817h.393a5.261,5.261,0,0,1-1.264,3.045l-.276-.276a.409.409,0,1,0-.578.578l.276.276a5.263,5.263,0,0,1-3.045,1.264V168.5a.409.409,0,1,0-.817,0v.393a5.261,5.261,0,0,1-3.045-1.264l.276-.276a.409.409,0,1,0-.578-.578l-.276.276A5.262,5.262,0,0,1,60.832,164h.393a.409.409,0,0,0,0-.817h-.393A5.262,5.262,0,0,1,62.1,160.14l.276.276a.409.409,0,0,0,.578-.578l-.276-.276a5.323,5.323,0,0,1,1.951-1.064.409.409,0,1,0-.231-.784,6.149,6.149,0,0,0-2.574,1.524l-.025.022-.02.022a6.119,6.119,0,0,0,0,8.621l.02.022.022.02a6.119,6.119,0,0,0,8.621,0l.022-.02.02-.022a6.119,6.119,0,0,0,0-8.621Zm0,0" transform="translate(-57.549 -151.254)"/><path class="a" d="M200.409,152.817a.409.409,0,1,0-.409-.409A.409.409,0,0,0,200.409,152.817Zm0,0" transform="translate(-191.829 -145.789)"/></g></svg>