<svg xmlns="http://www.w3.org/2000/svg" width="14.536" height="18.96" viewBox="0 0 14.536 18.96"><defs><style>.a{fill:#fff;}</style></defs><g transform="translate(-56)"><g transform="translate(56 0)"><g transform="translate(0 0)"><path class="a" d="M70.22,1.264H66.112V.316A.316.316,0,0,0,65.8,0H60.74a.316.316,0,0,0-.316.316h0v.948H56.316A.316.316,0,0,0,56,1.58h0V18.644a.316.316,0,0,0,.316.316h13.9a.316.316,0,0,0,.316-.316h0V1.58A.316.316,0,0,0,70.22,1.264ZM61.056.632H65.48v1.9H61.056Zm8.848,17.7H56.632V1.9h3.792v.948a.316.316,0,0,0,.316.316H65.8a.316.316,0,0,0,.316-.316h0V1.9H69.9Z" transform="translate(-56 0)"/></g></g><g transform="translate(57.256 14.633)"><g transform="translate(0 0)"><rect class="a" width="7" height="1" transform="translate(0.012 -0.153)"/></g></g><g transform="translate(64.986 14.633)"><g transform="translate(0 0)"><rect class="a" width="4" height="1" transform="translate(0.282 -0.153)"/></g></g><g transform="translate(57.256 16.351)"><g transform="translate(0 0)"><rect class="a" width="12" transform="translate(0.012 0.129)"/></g></g><g transform="translate(57.256 16.351)"><g transform="translate(0 0)"><rect class="a" width="5" height="1" transform="translate(0.012 0.129)"/></g></g><g transform="translate(63.268 16.351)"><g transform="translate(0 0)"><rect class="a" width="6" height="1" transform="translate(0 0.129)"/></g></g><g transform="translate(57.264 9.164)"><g transform="translate(0)"><path class="a" d="M90.212,232h-1.9a.316.316,0,0,0-.316.316h0v4.108a.316.316,0,0,0,.316.316h1.9a.316.316,0,0,0,.316-.316h0v-4.108A.316.316,0,0,0,90.212,232Zm-.316,4.108H88.632v-3.476H89.9Z" transform="translate(-88 -232)"/></g></g><g transform="translate(60.424 7.9)"><g transform="translate(0)"><path class="a" d="M170.212,200h-1.9a.316.316,0,0,0-.316.316h0v5.372a.316.316,0,0,0,.316.316h1.9a.316.316,0,0,0,.316-.316h0v-5.372A.316.316,0,0,0,170.212,200Zm-.316,5.372h-1.264v-4.74H169.9Z" transform="translate(-168 -200)"/></g></g><g transform="translate(63.584 6.636)"><g transform="translate(0)"><path class="a" d="M250.212,168h-1.9a.316.316,0,0,0-.316.316h0v6.636a.316.316,0,0,0,.316.316h1.9a.316.316,0,0,0,.316-.316h0v-6.636A.316.316,0,0,0,250.212,168Zm-.316,6.636h-1.264v-6H249.9Z" transform="translate(-248 -168)"/></g></g><g transform="translate(66.744 5.372)"><path class="a" d="M330.212,136h-1.9a.316.316,0,0,0-.316.316h0v7.9a.316.316,0,0,0,.316.316h1.9a.316.316,0,0,0,.316-.316h0v-7.9A.316.316,0,0,0,330.212,136Zm-.316,7.9h-1.264v-7.268H329.9Z" transform="translate(-328 -136)"/></g><g transform="translate(57.413 3.166)"><g transform="translate(0)"><path class="a" d="M103.243,80.156l-3.16.632a.317.317,0,0,0-.113.047l-2.764,1.843H94.457a.315.315,0,0,0-.167.048l-2.528,1.58.335.536,2.451-1.532H97.3a.316.316,0,0,0,.175-.053l2.792-1.861,3.1-.62Z" transform="translate(-91.762 -80.156)"/></g></g></g></svg>