<svg xmlns="http://www.w3.org/2000/svg" width="30.003" height="30.003" viewBox="0 0 30.003 30.003"><defs><style>.a{fill:#6f23bb;}</style></defs><g transform="translate(0.001 0)"><path class="a" d="M161.728,190.849a.586.586,0,1,0-.829,0A.585.585,0,0,0,161.728,190.849Zm0,0" transform="translate(-151.31 -178.724)"/><path class="a" d="M228.578,172.849a1.758,1.758,0,1,0-2.486,0A1.76,1.76,0,0,0,228.578,172.849Zm-1.658-1.657a.586.586,0,1,1,0,.828A.586.586,0,0,1,226.92,171.192Zm0,0" transform="translate(-212.359 -159.895)"/><path class="a" d="M226.091,283.491a1.758,1.758,0,1,0,2.486,0A1.757,1.757,0,0,0,226.091,283.491Zm1.658,1.658a.586.586,0,1,1,0-.829A.586.586,0,0,1,227.749,285.148Zm0,0" transform="translate(-212.358 -266.393)"/><path class="a" d="M174.88,234.628a.586.586,0,0,0,.689.46l8.287-1.658a.586.586,0,1,0-.23-1.149l-8.287,1.658A.586.586,0,0,0,174.88,234.628Zm0,0" transform="translate(-164.623 -218.659)"/><path class="a" d="M69.934,56.574a.586.586,0,0,0-.414.171L63.367,62.9a.586.586,0,0,0,.829.829l5.738-5.738,7.458,7.458L64.237,78.6l-7.458-7.458,4.1-4.1a.586.586,0,0,0-.829-.829L55.535,70.73a.586.586,0,0,0,0,.829l8.287,8.287a.586.586,0,0,0,.829,0L78.635,65.861a.586.586,0,0,0,0-.829l-8.287-8.287a.586.586,0,0,0-.414-.171Zm0,0" transform="translate(-52.12 -53.258)"/><path class="a" d="M29,.172,26.486,2.687a4.141,4.141,0,0,0-4.949-.046L19.477.521,19.471.515a1.757,1.757,0,0,0-2.487,0L.515,17.057a1.758,1.758,0,0,0,0,2.487l2.324,2.324a4.163,4.163,0,0,0,5.3,5.3l2.324,2.324a1.757,1.757,0,0,0,2.485,0L29.487,13.017a1.756,1.756,0,0,0,0-2.486l-.006-.006-2.12-2.06a4.133,4.133,0,0,0-.046-4.95L29.83,1A.586.586,0,1,0,29,.172ZM26.143,8.087a.586.586,0,0,0,.006.835l2.512,2.441a.585.585,0,0,1,0,.825L12.116,28.658a.587.587,0,0,1-.829,0l-2.6-2.6a.586.586,0,0,0-.663-.116,2.989,2.989,0,0,1-3.967-3.967.586.586,0,0,0-.116-.663l-2.6-2.6a.587.587,0,0,1,0-.83L17.814,1.344a.586.586,0,0,1,.826,0L21.08,3.853a.585.585,0,0,0,.835.006,2.95,2.95,0,0,1,3.731-.332l-.86.86a1.757,1.757,0,1,0,.83.828l.859-.859a2.945,2.945,0,0,1-.333,3.732Zm-1.7-2.528a.586.586,0,1,1-.829,0A.586.586,0,0,1,24.443,5.558Zm0,0" transform="translate(0)"/></g></svg>