<svg xmlns="http://www.w3.org/2000/svg" width="54.51" height="27.889" viewBox="0 0 54.51 27.889">
  <g id="Group_854" transform="translate(-3640 296.628)">
    <rect id="Rectangle_1541" width="50" height="16" rx="8" transform="translate(3642.255 -290.683)" fill="#8937da"/>
    <path id="Subtraction_2"  d="M51.975,27.889H2.535V25.354H12.676V24.086H10.141A10.142,10.142,0,0,1,9.164,3.85H21.7V3.8h1.115V1.268A1.269,1.269,0,0,1,24.086,0h7.606A1.269,1.269,0,0,1,32.96,1.268V3.8h1.361V3.85H45.637v.042a10.137,10.137,0,0,1-1.268,20.194H43.1v1.268h8.873v2.534Zm-22.818-3.8v1.268H40.565V24.086Zm-13.944,0v1.268H26.621V24.086ZM10.141,6.338a7.606,7.606,0,0,0,0,15.212H44.369a7.606,7.606,0,0,0,0-15.212Zm15.212-3.8V3.8h5.07V2.535Z" transform="translate(3640 -296.628)" fill="#390f64"/>
    <rect id="Rectangle_1542" width="12" height="2" transform="translate(3649.255 -294.683)" fill="none"/>
  </g>
</svg>
