<svg xmlns="http://www.w3.org/2000/svg" width="17.816" height="22.433" viewBox="0 0 17.816 22.433"><defs><style>.a{fill:#fff;fill-rule:evenodd;opacity:0.93;}</style></defs><path class="a" d="M102.9,559.812v.4h.707v.76H102.9v3.764h.707v.76H88.045v-.76h.706v-3.764h-.8v-.76h.8v-4.85h-.8V554.6h.8v-4.85h-.8v-.761h.8v-3.764h-.706v-.76h2.244v-1.4H94.08v1.4h9.529v.76H102.9v3.764h.706v.761H102.9v.835l2.433,4.387a3.247,3.247,0,0,1-2.435,4.843Zm-.76-1.32.24-.719a1.373,1.373,0,0,1-.639-.451l-.6.469a2.116,2.116,0,0,0,1,.7Zm-.151-4.912-1.018,1.835a2.121,2.121,0,0,0-.228,1.542,2.144,2.144,0,0,0,.164.458l.68-.336a1.362,1.362,0,0,1-.1-.295,1.382,1.382,0,0,1,.147-1l1.021-1.839-.662-.368Zm.152-3v-.835h-8.4v-.761h8.4v-3.764H89.511v3.764H90.85v.761H89.511v4.85H90.85v.761H89.511v4.85H90.85v.76H89.511v3.764h12.634v-3.764h-8.4v-.76h8.4v-.4a3.247,3.247,0,0,1-2.625-4.455H93.745V554.6h6.171l2.227-4.014Zm-1.378,7.763a2.487,2.487,0,0,0,4.16-2.4,2.37,2.37,0,0,0-.251-.605l-2.151-3.878-2.151,3.878a2.48,2.48,0,0,0,.393,3.007Zm-9.716-13.883H93.32v-.642H91.049Z" transform="translate(-87.954 -543.059)"/></svg>