<svg xmlns="http://www.w3.org/2000/svg" width="9.91" height="27.027" viewBox="0 0 9.91 27.027"><defs><style>.a{fill:#6f23bb;}</style></defs><g transform="translate(-0.419)"><path class="a" d="M5.376,0A3.156,3.156,0,0,0,2.224,3.152v15.1a4.954,4.954,0,1,0,8.1,3.814,4.907,4.907,0,0,0-1.8-3.814V3.152A3.155,3.155,0,0,0,5.376,0ZM9.428,22.063a4.052,4.052,0,1,1-6.484-3.237.451.451,0,0,0,.18-.36V17.11h.9v-.9h-.9V14.859h.9v-.9h-.9V12.608h.9v-.9h-.9V10.356h.9v-.9h-.9V8.1h.9V7.2h-.9V5.854h.9v-.9h-.9v-1.8a2.251,2.251,0,0,1,4.5,0V18.467a.45.45,0,0,0,.18.36,4.022,4.022,0,0,1,1.621,3.236Zm0,0"/><path class="a" d="M61.369,103.071v-15.8h-.9v15.8a2.251,2.251,0,1,0,.9,0Zm-.45,3.557a1.351,1.351,0,1,1,1.351-1.351A1.351,1.351,0,0,1,60.919,106.628Zm0,0" transform="translate(-55.543 -83.214)"/></g></svg>