<svg xmlns="http://www.w3.org/2000/svg" width="19.913" height="19.913" viewBox="0 0 19.913 19.913"><defs><style>.a{fill:#fff;}</style></defs><path class="a" d="M19.913,9.957A9.957,9.957,0,1,0,3.232,17.291l-.009.008.323.272c.021.018.044.032.065.05.172.142.349.277.53.408.059.042.117.085.177.126q.29.2.595.379l.133.077c.222.126.449.245.681.355l.051.023a9.867,9.867,0,0,0,2.408.762l.067.012c.262.045.527.081.8.106l.1.008c.267.022.537.036.811.036s.539-.014.8-.035l.1-.008q.4-.036.789-.1l.068-.012a9.866,9.866,0,0,0,2.374-.744l.083-.038q.335-.157.656-.339l.159-.092c.195-.115.386-.235.572-.362.067-.046.133-.094.2-.142.159-.114.315-.232.467-.356.034-.027.07-.051.1-.079l.331-.277-.01-.008A9.931,9.931,0,0,0,19.913,9.957Zm-19.189,0a9.233,9.233,0,1,1,15.355,6.9,2.713,2.713,0,0,0-.323-.194l-3.066-1.533a.8.8,0,0,1-.446-.722V13.339c.071-.088.146-.187.223-.3a7.378,7.378,0,0,0,.947-1.855A1.314,1.314,0,0,0,14.17,10V8.714a1.317,1.317,0,0,0-.321-.858V6.167a2.92,2.92,0,0,0-.682-2.123A4.075,4.075,0,0,0,9.957,2.9a4.077,4.077,0,0,0-3.21,1.147,2.92,2.92,0,0,0-.682,2.123v1.69a1.319,1.319,0,0,0-.321.858V10a1.317,1.317,0,0,0,.485,1.021,6.8,6.8,0,0,0,1.12,2.313V14.38a.808.808,0,0,1-.421.709L4.065,16.65a2.616,2.616,0,0,0-.272.172A9.21,9.21,0,0,1,.724,9.957Zm14.649,7.47q-.19.138-.386.266c-.06.039-.12.078-.181.116-.171.106-.345.206-.522.3l-.118.06A9.225,9.225,0,0,1,12.9,18.7l-.046.016q-.341.113-.689.2h0c-.235.058-.472.106-.711.146l-.02,0c-.225.037-.451.063-.679.083l-.121.009c-.225.017-.451.028-.678.028s-.458-.011-.686-.028l-.118-.009c-.23-.02-.458-.047-.684-.084l-.03-.005a9.2,9.2,0,0,1-1.408-.352L6.987,18.7q-.342-.116-.674-.258l0,0c-.209-.09-.415-.19-.617-.3L5.611,18.1c-.185-.1-.366-.206-.545-.317l-.157-.1c-.164-.108-.327-.219-.484-.338l-.048-.038.035-.02,2.863-1.562a1.531,1.531,0,0,0,.8-1.345v-1.3l-.083-.1A6.045,6.045,0,0,1,6.9,10.725l-.033-.143-.123-.08a.6.6,0,0,1-.278-.5V8.714a.591.591,0,0,1,.2-.443l.119-.108V6.146l0-.047A2.181,2.181,0,0,1,7.291,4.52a3.412,3.412,0,0,1,2.666-.9,3.42,3.42,0,0,1,2.66.893A2.217,2.217,0,0,1,13.128,6.1l0,2.064.119.108a.592.592,0,0,1,.2.443V10a.6.6,0,0,1-.428.57l-.18.055-.058.179a6.7,6.7,0,0,1-.9,1.822c-.095.134-.187.253-.266.344l-.09.1V14.41a1.522,1.522,0,0,0,.846,1.369l3.066,1.533.058.03C15.452,17.371,15.412,17.4,15.373,17.427Z"/></svg>