<svg xmlns="http://www.w3.org/2000/svg" width="16.952" height="16.145" viewBox="0 0 16.952 16.145"><defs><style>.a{fill:#fff;}</style></defs><g transform="translate(0 -13.415)"><path class="a" d="M134.524,22.476a4.53,4.53,0,1,0-4.537-4.537A4.538,4.538,0,0,0,134.524,22.476Zm0-7.878a3.34,3.34,0,1,1-3.34,3.34A3.35,3.35,0,0,1,134.524,14.6Z" transform="translate(-126.076 0)"/><path class="a" d="M.6,347.217H16.354a.594.594,0,0,0,.6-.6,5.7,5.7,0,0,0-5.692-5.692H5.692A5.7,5.7,0,0,0,0,346.618.594.594,0,0,0,.6,347.217Zm5.094-5.094H11.26a4.493,4.493,0,0,1,4.454,3.9H1.239A4.5,4.5,0,0,1,5.692,342.123Z" transform="translate(0 -317.657)"/></g></svg>