<svg xmlns="http://www.w3.org/2000/svg" width="13.102" height="24.091" viewBox="0 0 13.102 24.091"><defs><style>.a{fill:#6f23bb;}</style></defs><path class="a" d="M7.039,0H.506A.455.455,0,0,0,.051.455v23.18a.455.455,0,0,0,.455.455H7.039a.455.455,0,0,0,.455-.455V.455A.455.455,0,0,0,7.039,0ZM6.583,3.073H5.459a.455.455,0,0,0,0,.91H6.583V5.5H5.459a.455.455,0,0,0,0,.911H6.583V7.948H4.435a.455.455,0,0,0,0,.91H6.583v1.52H5.459a.455.455,0,0,0,0,.91H6.583v1.525H5.459a.455.455,0,0,0,0,.91H6.583v1.507H4.435a.455.455,0,0,0,0,.91H6.583v1.52H5.459a.455.455,0,1,0,0,.91H6.583v1.52H5.459a.455.455,0,0,0,0,.91H6.583v2.162H.961V.91H6.583Zm0,0" transform="translate(-0.051)"/><path class="a" d="M226.567,28.393a.455.455,0,0,0,.346-.751l-1.407-2.449a.455.455,0,0,0-.622-.165.45.45,0,0,0-.165.165l-1.452,2.518a.455.455,0,0,0,.4.683h1V43.552h-1a.455.455,0,0,0-.4.683l1.452,2.518a.455.455,0,0,0,.622.165.451.451,0,0,0,.165-.165l1.452-2.518a.455.455,0,0,0-.4-.683h-1V28.393Zm-.787,16.07-.665,1.152-.665-1.152Zm-1.329-16.98.665-1.152.665,1.152Zm0,0" transform="translate(-213.92 -23.927)"/></svg>