<svg xmlns="http://www.w3.org/2000/svg" width="22.216" height="14.382" viewBox="0 0 22.216 14.382"><defs><style>.a{fill:#6f23bb;}</style></defs><g transform="translate(0)"><path class="a" d="M17.773,265.449a4.012,4.012,0,0,0-2.6.9,2.907,2.907,0,0,1-3.695,0,4.011,4.011,0,0,0-2.6-.9,4.011,4.011,0,0,0-2.6.9,2.765,2.765,0,0,1-1.847.663,2.765,2.765,0,0,1-1.847-.663,4.012,4.012,0,0,0-2.6-.9v1.3a2.764,2.764,0,0,1,1.847.663,4.012,4.012,0,0,0,2.6.9,4.012,4.012,0,0,0,2.6-.9,2.765,2.765,0,0,1,1.847-.663,2.765,2.765,0,0,1,1.847.663,4.2,4.2,0,0,0,5.192,0,2.906,2.906,0,0,1,3.695,0,4.012,4.012,0,0,0,2.6.9v-1.3a2.766,2.766,0,0,1-1.847-.663A4.012,4.012,0,0,0,17.773,265.449Zm0,0" transform="translate(0 -253.931)"/><path class="a" d="M17.773,88.484a4.012,4.012,0,0,0-2.6.9,2.906,2.906,0,0,1-3.695,0,4.012,4.012,0,0,0-2.6-.9,4.011,4.011,0,0,0-2.6.9,2.765,2.765,0,0,1-1.847.663A2.766,2.766,0,0,1,2.6,89.384a4.012,4.012,0,0,0-2.6-.9v1.3a2.765,2.765,0,0,1,1.847.663,4.011,4.011,0,0,0,2.6.9,4.011,4.011,0,0,0,2.6-.9,2.765,2.765,0,0,1,1.847-.663,2.766,2.766,0,0,1,1.847.663,4.2,4.2,0,0,0,5.192,0,2.907,2.907,0,0,1,3.695,0,4.011,4.011,0,0,0,2.6.9v-1.3a2.766,2.766,0,0,1-1.847-.663A4.012,4.012,0,0,0,17.773,88.484Zm0,0" transform="translate(0 -84.645)"/><path class="a" d="M17.773,176.969a4.012,4.012,0,0,0-2.6.9,2.906,2.906,0,0,1-3.695,0,4.012,4.012,0,0,0-2.6-.9,4.011,4.011,0,0,0-2.6.9,2.766,2.766,0,0,1-1.847.663,2.766,2.766,0,0,1-1.847-.663,4.012,4.012,0,0,0-2.6-.9v1.3a2.765,2.765,0,0,1,1.847.663,4.012,4.012,0,0,0,2.6.9,4.011,4.011,0,0,0,2.6-.9,2.765,2.765,0,0,1,1.847-.663,2.766,2.766,0,0,1,1.847.663,4.2,4.2,0,0,0,5.192,0,2.907,2.907,0,0,1,3.695,0,4.012,4.012,0,0,0,2.6.9v-1.3a2.766,2.766,0,0,1-1.847-.663A4.012,4.012,0,0,0,17.773,176.969Zm0,0" transform="translate(0 -169.29)"/><path class="a" d="M20.369.9a4.2,4.2,0,0,0-5.192,0,2.766,2.766,0,0,1-1.848.663A2.765,2.765,0,0,1,11.483.9a4.011,4.011,0,0,0-2.6-.9,4.01,4.01,0,0,0-2.6.9,2.765,2.765,0,0,1-1.847.663A2.765,2.765,0,0,1,2.6.9,4.011,4.011,0,0,0,0,0V1.3a2.765,2.765,0,0,1,1.847.663,4.011,4.011,0,0,0,2.6.9,4.01,4.01,0,0,0,2.6-.9A2.765,2.765,0,0,1,8.887,1.3a2.766,2.766,0,0,1,1.847.663,4.01,4.01,0,0,0,2.6.9,4.011,4.011,0,0,0,2.6-.9,2.907,2.907,0,0,1,3.695,0,4.011,4.011,0,0,0,2.6.9v-1.3A2.766,2.766,0,0,1,20.369.9Zm0,0"/></g></svg>